<svg id="stage" width="1536" height="190" xmlns="http://www.w3.org/2000/svg">
		<g id="branchGroup"><path d="M 717.4119262695312 130.85055541992188 Q 719.9382926491952 130.85055541992188 , 719.9382926491952 139.60504295960968 , 719.9382926491952 147.32764295685215 , 737.0521106250081 147.32764295685215 , 758.3436470815292 147.32764295685215 , 758.3436470815292 165.10261713877992 , 758.3436470815292 186.47864781026914 , 781.9427722249108 186.47864781026914" style="fill: none; stroke: rgb(100, 111, 75); stroke-linecap: round; stroke-dasharray: 98.7349, 98.7349; stroke-dashoffset: 0.0186671; stroke-width: 3.19977px;" data-svg-origin="717.41015625 130.8515625" transform="matrix(1,0,0,1,0,0)"/><path d="M 717.4119262695312 130.85055541992188 Q 719.9382926491952 130.85055541992188 , 719.9382926491952 139.60504295960968 , 719.9382926491952 147.32764295685215 , 737.0521106250081 147.32764295685215 , 758.3436470815292 147.32764295685215 , 758.3436470815292 165.10261713877992 , 758.3436470815292 186.47864781026914 , 781.9427722249108 186.47864781026914" style="fill: none; stroke: rgb(111, 202, 177); stroke-linecap: round; stroke-dasharray: 98.7349, 98.7349; stroke-dashoffset: 0.0260722; stroke-width: 3.19968px;" data-svg-origin="717.41015625 130.8515625" transform="matrix(1,0,0,1,-2,-2)"/><path d="M 315.70111083984375 -69.93819427490234 Q 320.4537215592889 -69.93819427490234 , 320.4537215592889 -77.02483936174977 , 320.4537215592889 -85.52713819512242 , 333.4323308233563 -85.52713819512242 , 350.4638838556974 -85.52713819512242 , 350.4638838556974 -103.98966032322065 , 350.4638838556974 -137.20666605709079 , 383.7034868758315 -137.20666605709079" style="fill: none; stroke: rgb(100, 111, 75); stroke-linecap: round; stroke-dasharray: 110.02, 110.02; stroke-dashoffset: 0.0139243; stroke-width: 3.19985px;" data-svg-origin="315.69921875 -137.20703125" transform="matrix(1,0,0,1,0,0)"/><path d="M 315.70111083984375 -69.93819427490234 Q 320.4537215592889 -69.93819427490234 , 320.4537215592889 -77.02483936174977 , 320.4537215592889 -85.52713819512242 , 333.4323308233563 -85.52713819512242 , 350.4638838556974 -85.52713819512242 , 350.4638838556974 -103.98966032322065 , 350.4638838556974 -137.20666605709079 , 383.7034868758315 -137.20666605709079" style="fill: none; stroke: rgb(111, 202, 177); stroke-linecap: round; stroke-dasharray: 110.02, 110.02; stroke-dashoffset: 0.0208006; stroke-width: 3.19977px;" data-svg-origin="315.69921875 -137.20703125" transform="matrix(1,0,0,1,-2,-2)"/><path d="M 893.5116577148438 245.47015380859375 Q 890.4313565259648 245.47015380859375 , 890.4313565259648 255.39704792274242 , 890.4313565259648 266.71036059708996 , 876.3871345283216 266.71036059708996 , 855.8003353160803 266.71036059708996 , 855.8003353160803 283.39931669258016 , 855.8003353160803 310.0373235623374 , 825.2543599779888 310.0373235623374" style="fill: none; stroke: rgb(100, 111, 75); stroke-linecap: round; stroke-dasharray: 108.551, 108.551; stroke-dashoffset: 0.016961; stroke-width: 3.19981px;" data-svg-origin="825.25390625 245.46875" transform="matrix(1,0,0,1,0,0)"/><path d="M 893.5116577148438 245.47015380859375 Q 890.4313565259648 245.47015380859375 , 890.4313565259648 255.39704792274242 , 890.4313565259648 266.71036059708996 , 876.3871345283216 266.71036059708996 , 855.8003353160803 266.71036059708996 , 855.8003353160803 283.39931669258016 , 855.8003353160803 310.0373235623374 , 825.2543599779888 310.0373235623374" style="fill: none; stroke: rgb(111, 202, 177); stroke-linecap: round; stroke-dasharray: 108.551, 108.551; stroke-dashoffset: 0.0244239; stroke-width: 3.19973px;" data-svg-origin="825.25390625 245.46875" transform="matrix(1,0,0,1,-2,-2)"/><path d="M 535.521484375 133.99009704589844 Q 531.04147218497 133.99009704589844 , 531.04147218497 128.1743284929761 , 531.04147218497 119.85154159997634 , 520.2621582374145 119.85154159997634 , 499.07053670211855 119.85154159997634 , 499.07053670211855 147.38881552735592 , 499.07053670211855 166.34023224495087 , 473.67910074890574 166.34023224495087 , 447.7576639790909 166.34023224495087 , 447.7576639790909 192.25831253744843 , 447.7576639790909 222.24333903615573 , 484.89232765418245 222.24333903615573" style="fill: none; stroke: rgb(100, 111, 75); stroke-linecap: round; stroke-dasharray: 196.427, 196.427; stroke-dashoffset: 0.00873011; stroke-width: 4.79988px;" data-svg-origin="447.7578125 119.8515625" transform="matrix(1,0,0,1,0,0)"/><path d="M 535.521484375 133.99009704589844 Q 531.04147218497 133.99009704589844 , 531.04147218497 128.1743284929761 , 531.04147218497 119.85154159997634 , 520.2621582374145 119.85154159997634 , 499.07053670211855 119.85154159997634 , 499.07053670211855 147.38881552735592 , 499.07053670211855 166.34023224495087 , 473.67910074890574 166.34023224495087 , 447.7576639790909 166.34023224495087 , 447.7576639790909 192.25831253744843 , 447.7576639790909 222.24333903615573 , 484.89232765418245 222.24333903615573" style="fill: none; stroke: rgb(111, 202, 177); stroke-linecap: round; stroke-dasharray: 196.427, 196.427; stroke-dashoffset: 0.0165054; stroke-width: 4.79976px;" data-svg-origin="447.7578125 119.8515625" transform="matrix(1,0,0,1,-2,-2)"/><path d="M 768 138 Q 765.2798947946926 138 , 765.2798947946926 131.08287627285603 , 765.2798947946926 123.36525508198623 , 754.2141409706207 123.36525508198623 , 730.9464602393545 123.36525508198623 , 730.9464602393545 148.37106816787895 , 730.9464602393545 166.72766852680644 , 691.8814592991554 166.72766852680644 , 661.1215579720059 166.72766852680644 , 661.1215579720059 200.32471397854044 , 661.1215579720059 252.126075372694 , 697.3299680742189 252.126075372694 , 758.0658397475504 252.126075372694 , 758.0658397475504 198.61657418379014 , 758.0658397475504 138.81346205919206 , 714.5069623873586 138.81346205919206 , 650.5815850544017 138.81346205919206 , 650.5815850544017 190.78978748648305 , 650.5815850544017 274.49950279417914 , 600.3022881038712 274.49950279417914 , 544.7743101169418 274.49950279417914 , 544.7743101169418 169.25500571737498 , 544.7743101169418 96.42023231907694 , 428.25086901780173 96.42023231907694 , 339.86571266443923 96.42023231907694 , 339.86571266443923 7.777765816713583 , 339.86571266443923 -90.18703602071777 , 258.61847726924555 -90.18703602071777 , 176.27071319711243 -90.18703602071777 , 176.27071319711243 12.01471339733439 , 176.27071319711243 108.63080953287145 , 39.3006375263181 108.63080953287145" style="fill: none; stroke: rgb(100, 111, 75); stroke-linecap: round; stroke-dasharray: 1534.49, 1534.49; stroke-dashoffset: 0.00134867; stroke-width: 12.8px;" data-svg-origin="39.30078125 -90.1875" transform="matrix(1,0,0,1,0,0)"/><path d="M 768 138 Q 765.2798947946926 138 , 765.2798947946926 131.08287627285603 , 765.2798947946926 123.36525508198623 , 754.2141409706207 123.36525508198623 , 730.9464602393545 123.36525508198623 , 730.9464602393545 148.37106816787895 , 730.9464602393545 166.72766852680644 , 691.8814592991554 166.72766852680644 , 661.1215579720059 166.72766852680644 , 661.1215579720059 200.32471397854044 , 661.1215579720059 252.126075372694 , 697.3299680742189 252.126075372694 , 758.0658397475504 252.126075372694 , 758.0658397475504 198.61657418379014 , 758.0658397475504 138.81346205919206 , 714.5069623873586 138.81346205919206 , 650.5815850544017 138.81346205919206 , 650.5815850544017 190.78978748648305 , 650.5815850544017 274.49950279417914 , 600.3022881038712 274.49950279417914 , 544.7743101169418 274.49950279417914 , 544.7743101169418 169.25500571737498 , 544.7743101169418 96.42023231907694 , 428.25086901780173 96.42023231907694 , 339.86571266443923 96.42023231907694 , 339.86571266443923 7.777765816713583 , 339.86571266443923 -90.18703602071777 , 258.61847726924555 -90.18703602071777 , 176.27071319711243 -90.18703602071777 , 176.27071319711243 12.01471339733439 , 176.27071319711243 108.63080953287145 , 39.3006375263181 108.63080953287145" style="fill: none; stroke: rgb(111, 202, 177); stroke-linecap: round; stroke-dasharray: 1534.49, 1534.49; stroke-dashoffset: 0.0181321; stroke-width: 12.7999px;" data-svg-origin="39.30078125 -90.1875" transform="matrix(1,0,0,1,-2,-2)"/><path d="M 747.973876953125 185.0973358154297 Q 743.9850281746627 185.0973358154297 , 743.9850281746627 192.2834151500999 , 743.9850281746627 202.3286493572036 , 733.7613823569935 202.3286493572036 , 721.0039784691463 202.3286493572036 , 721.0039784691463 182.17392714730752 , 721.0039784691463 164.6236491725747 , 682.6079422125947 164.6236491725747" style="fill: none; stroke: rgb(100, 111, 75); stroke-linecap: round; stroke-dasharray: 99.3107, 99.3107; stroke-dashoffset: 0.00139656; stroke-width: 3.19998px;" data-svg-origin="682.609375 164.625" transform="matrix(1,0,0,1,0,0)"/><path d="M 747.973876953125 185.0973358154297 Q 743.9850281746627 185.0973358154297 , 743.9850281746627 192.2834151500999 , 743.9850281746627 202.3286493572036 , 733.7613823569935 202.3286493572036 , 721.0039784691463 202.3286493572036 , 721.0039784691463 182.17392714730752 , 721.0039784691463 164.6236491725747 , 682.6079422125947 164.6236491725747" style="fill: none; stroke: rgb(111, 202, 177); stroke-linecap: round; stroke-dasharray: 99.3107, 99.3107; stroke-dashoffset: 0.00387932; stroke-width: 3.19995px;" data-svg-origin="682.609375 164.625" transform="matrix(1,0,0,1,-2,-2)"/><path d="M 454.7337951660156 172.34242248535156 Q 450.04559241638043 172.34242248535156 , 450.04559241638043 182.31168085903886 , 450.04559241638043 196.36589263072406 , 437.5101661988589 196.36589263072406 , 416.0283898726052 196.36589263072406 , 416.0283898726052 168.20583177657764 , 416.0283898726052 137.39566477034055 , 379.41074470577297 137.39566477034055" style="fill: none; stroke: rgb(100, 111, 75); stroke-linecap: round; stroke-dasharray: 129.037, 129.037; stroke-dashoffset: 0.0806479; stroke-width: 3.19925px;" data-svg-origin="379.41015625 137.39453125" transform="matrix(1,0,0,1,0,0)"/><path d="M 454.7337951660156 172.34242248535156 Q 450.04559241638043 172.34242248535156 , 450.04559241638043 182.31168085903886 , 450.04559241638043 196.36589263072406 , 437.5101661988589 196.36589263072406 , 416.0283898726052 196.36589263072406 , 416.0283898726052 168.20583177657764 , 416.0283898726052 137.39566477034055 , 379.41074470577297 137.39566477034055" style="fill: none; stroke: rgb(111, 202, 177); stroke-linecap: round; stroke-dasharray: 129.037, 129.037; stroke-dashoffset: 0.097584; stroke-width: 3.19909px;" data-svg-origin="379.41015625 137.39453125" transform="matrix(1,0,0,1,-2,-2)"/><path d="M 499.76593017578125 138.3161163330078 Q 496.4630784083632 138.3161163330078 , 496.4630784083632 146.00781552862296 , 496.4630784083632 160.2627784418397 , 484.12719834427327 160.2627784418397 , 462.01047570219583 160.2627784418397 , 462.01047570219583 187.6443336063624 , 462.01047570219583 219.39915917775105 , 430.0512791706786 219.39915917775105" style="fill: none; stroke: rgb(100, 111, 75); stroke-linecap: round; stroke-dasharray: 122.785, 122.785; stroke-dashoffset: 0.01554; stroke-width: 3.19985px;" data-svg-origin="430.05078125 138.31640625" transform="matrix(1,0,0,1,0,0)"/><path d="M 499.76593017578125 138.3161163330078 Q 496.4630784083632 138.3161163330078 , 496.4630784083632 146.00781552862296 , 496.4630784083632 160.2627784418397 , 484.12719834427327 160.2627784418397 , 462.01047570219583 160.2627784418397 , 462.01047570219583 187.6443336063624 , 462.01047570219583 219.39915917775105 , 430.0512791706786 219.39915917775105" style="fill: none; stroke: rgb(111, 202, 177); stroke-linecap: round; stroke-dasharray: 122.785, 122.785; stroke-dashoffset: 0.0232141; stroke-width: 3.19977px;" data-svg-origin="430.05078125 138.31640625" transform="matrix(1,0,0,1,-2,-2)"/><path d="M 688.4937744140625 166.83566284179688 Q 691.7329277997512 166.83566284179688 , 691.7329277997512 173.17053643269625 , 691.7329277997512 181.34462496187354 , 706.3784949549739 181.34462496187354 , 719.3262076653913 181.34462496187354 , 719.3262076653913 206.44401459282696 , 719.3262076653913 229.79911387205843 , 741.7429136354124 229.79911387205843 , 772.6964030322627 229.79911387205843 , 772.6964030322627 198.21153802790494 , 772.6964030322627 153.32868177089154 , 807.9565228662714 153.32868177089154 , 841.6808886812124 153.32868177089154 , 841.6808886812124 191.93096134736334 , 841.6808886812124 235.90301145287577 , 797.7483733658618 235.90301145287577 , 751.8037005272702 235.90301145287577 , 751.8037005272702 295.6771966040315 , 751.8037005272702 346.6317931748377 , 834.7518194380652 346.6317931748377 , 898.067096822703 346.6317931748377 , 898.067096822703 279.4317251852553 , 898.067096822703 199.2927891681085 , 819.5782058683837 199.2927891681085 , 717.4091015105668 199.2927891681085 , 717.4091015105668 130.13169058899547" style="fill: none; stroke: rgb(100, 111, 75); stroke-linecap: round; stroke-dasharray: 912.251, 912.251; stroke-dashoffset: 0.00485814; stroke-width: 10.4px;" data-svg-origin="688.4921875 130.1328125" transform="matrix(1,0,0,1,0,0)"/><path d="M 688.4937744140625 166.83566284179688 Q 691.7329277997512 166.83566284179688 , 691.7329277997512 173.17053643269625 , 691.7329277997512 181.34462496187354 , 706.3784949549739 181.34462496187354 , 719.3262076653913 181.34462496187354 , 719.3262076653913 206.44401459282696 , 719.3262076653913 229.79911387205843 , 741.7429136354124 229.79911387205843 , 772.6964030322627 229.79911387205843 , 772.6964030322627 198.21153802790494 , 772.6964030322627 153.32868177089154 , 807.9565228662714 153.32868177089154 , 841.6808886812124 153.32868177089154 , 841.6808886812124 191.93096134736334 , 841.6808886812124 235.90301145287577 , 797.7483733658618 235.90301145287577 , 751.8037005272702 235.90301145287577 , 751.8037005272702 295.6771966040315 , 751.8037005272702 346.6317931748377 , 834.7518194380652 346.6317931748377 , 898.067096822703 346.6317931748377 , 898.067096822703 279.4317251852553 , 898.067096822703 199.2927891681085 , 819.5782058683837 199.2927891681085 , 717.4091015105668 199.2927891681085 , 717.4091015105668 130.13169058899547" style="fill: none; stroke: rgb(111, 202, 177); stroke-linecap: round; stroke-dasharray: 912.251, 912.251; stroke-dashoffset: 0.0210857; stroke-width: 10.3998px;" data-svg-origin="688.4921875 130.1328125" transform="matrix(1,0,0,1,-2,-2)"/></g>
		<g id="thornGroup"><path d="M 0 0 Q -6.4 0  -6.4 3.2 L 0 25.6 L 6.4 3.2 Q 6.4 0 0 0 Z" class="thorn" style="fill: rgb(100, 111, 75); stroke: none; transform: matrix(0.99393, 0.10998, -0.10998, 0.99393, 757.591, 123.579);"/><path d="M 0 0 Q -6.4 0  -6.4 3.2 L 0 25.6 L 6.4 3.2 Q 6.4 0 0 0 Z" class="thorn" style="fill: rgb(100, 111, 75); stroke: none; transform: matrix(-0.99998, -0.00572, 0.00572, -0.99998, 715.186, 164.284);"/><path d="M 0 0 Q -5.2 0  -5.2 2.6 L 0 20.8 L 5.2 2.6 Q 5.2 0 0 0 Z" class="thorn" style="fill: rgb(100, 111, 75); stroke: none; transform: matrix(0.84768, -0.53049, 0.53049, 0.84768, 741.271, 229.796);"/><path d="M 0 0 Q -6.4 0  -6.4 3.2 L 0 25.6 L 6.4 3.2 Q 6.4 0 0 0 Z" class="thorn" style="fill: rgb(100, 111, 75); stroke: none; transform: matrix(0.01392, -0.9999, 0.9999, 0.01392, 724.085, 139.629);"/><path d="M 0 0 Q -5.2 0  -5.2 2.6 L 0 20.8 L 5.2 2.6 Q 5.2 0 0 0 Z" class="thorn" style="fill: rgb(100, 111, 75); stroke: none; transform: matrix(-0.85379, -0.5206, 0.5206, -0.85379, 780, 166.654);"/><path d="M 0 0 Q -5.2 0  -5.2 2.6 L 0 20.8 L 5.2 2.6 Q 5.2 0 0 0 Z" class="thorn" style="fill: rgb(100, 111, 75); stroke: none; transform: matrix(0.99091, -0.13449, 0.13449, 0.99091, 840.779, 180.338);"/><path d="M 0 0 Q -6.4 0  -6.4 3.2 L 0 25.6 L 6.4 3.2 Q 6.4 0 0 0 Z" class="thorn" style="fill: rgb(100, 111, 75); stroke: none; transform: matrix(-0.66954, 0.74277, -0.74277, -0.66954, 635.025, 258.015);"/><path d="M 0 0 Q -5.2 0  -5.2 2.6 L 0 20.8 L 5.2 2.6 Q 5.2 0 0 0 Z" class="thorn" style="fill: rgb(100, 111, 75); stroke: none; transform: matrix(-0.73927, -0.6734, 0.6734, -0.73927, 837.491, 214.897);"/><path d="M 0 0 Q -6.4 0  -6.4 3.2 L 0 25.6 L 6.4 3.2 Q 6.4 0 0 0 Z" class="thorn" style="fill: rgb(100, 111, 75); stroke: none; transform: matrix(0.91691, 0.39907, -0.39907, 0.91691, 533.267, 130.671);"/><path d="M 0 0 Q -5.2 0  -5.2 2.6 L 0 20.8 L 5.2 2.6 Q 5.2 0 0 0 Z" class="thorn" style="fill: rgb(100, 111, 75); stroke: none; transform: matrix(-0.99734, 0.07285, -0.07285, -0.99734, 776.208, 335.962);"/><path d="M 0 0 Q -2.4000000000000004 0  -2.4000000000000004 1.2000000000000002 L 0 9.600000000000001 L 2.4000000000000004 1.2000000000000002 Q 2.4000000000000004 0 0 0 Z" class="thorn" style="fill: rgb(100, 111, 75); stroke: none; transform: matrix(-0.19488, -0.98082, 0.98082, -0.19488, 531.183, 130.058);"/><path d="M 0 0 Q -6.4 0  -6.4 3.2 L 0 25.6 L 6.4 3.2 Q 6.4 0 0 0 Z" class="thorn" style="fill: rgb(100, 111, 75); stroke: none; transform: matrix(0.87, -0.49303, 0.49303, 0.87, 380.322, 87.1469);"/><path d="M 0 0 Q -2.4000000000000004 0  -2.4000000000000004 1.2000000000000002 L 0 9.600000000000001 L 2.4000000000000004 1.2000000000000002 Q 2.4000000000000004 0 0 0 Z" class="thorn" style="fill: rgb(100, 111, 75); stroke: none; transform: matrix(0.23537, 0.9719, -0.9719, 0.23537, 499.167, 143.791);"/><path d="M 0 0 Q -6.4 0  -6.4 3.2 L 0 25.6 L 6.4 3.2 Q 6.4 0 0 0 Z" class="thorn" style="fill: rgb(100, 111, 75); stroke: none; transform: matrix(0.98585, 0.16761, -0.16761, 0.98585, 354.162, 64.7398);"/><path d="M 0 0 Q -6.4 0  -6.4 3.2 L 0 25.6 L 6.4 3.2 Q 6.4 0 0 0 Z" class="thorn" style="fill: rgb(100, 111, 75); stroke: none; transform: matrix(-0.97501, -0.22212, 0.22212, -0.97501, 339.556, -3.94123);"/><path d="M 0 0 Q -5.2 0  -5.2 2.6 L 0 20.8 L 5.2 2.6 Q 5.2 0 0 0 Z" class="thorn" style="fill: rgb(100, 111, 75); stroke: none; transform: matrix(-0.52214, 0.85285, -0.85285, -0.52214, 898.027, 275.87);"/><path d="M 0 0 Q -2.4000000000000004 0  -2.4000000000000004 1.2000000000000002 L 0 9.600000000000001 L 2.4000000000000004 1.2000000000000002 Q 2.4000000000000004 0 0 0 Z" class="thorn" style="fill: rgb(100, 111, 75); stroke: none; transform: matrix(-0.89161, -0.4528, 0.4528, -0.89161, 465.672, 167.078);"/><path d="M 0 0 Q -5.2 0  -5.2 2.6 L 0 20.8 L 5.2 2.6 Q 5.2 0 0 0 Z" class="thorn" style="fill: rgb(100, 111, 75); stroke: none; transform: matrix(0.99947, -0.0325, 0.0325, 0.99947, 888.778, 233.777);"/><path d="M 0 0 Q -6.4 0  -6.4 3.2 L 0 25.6 L 6.4 3.2 Q 6.4 0 0 0 Z" class="thorn" style="fill: rgb(100, 111, 75); stroke: none; transform: matrix(-0.97078, -0.23993, 0.23993, -0.97078, 308.292, -76.2916);"/><path d="M 0 0 Q -2.4000000000000004 0  -2.4000000000000004 1.2000000000000002 L 0 9.600000000000001 L 2.4000000000000004 1.2000000000000002 Q 2.4000000000000004 0 0 0 Z" class="thorn" style="fill: rgb(100, 111, 75); stroke: none; transform: matrix(0.6344, 0.773, -0.773, 0.6344, 447.759, 192.543);"/><path d="M 0 0 Q -6.4 0  -6.4 3.2 L 0 25.6 L 6.4 3.2 Q 6.4 0 0 0 Z" class="thorn" style="fill: rgb(100, 111, 75); stroke: none; transform: matrix(-0.77034, -0.63762, 0.63762, -0.77034, 246.06, -89.5425);"/><path d="M 0 0 Q -2.4000000000000004 0  -2.4000000000000004 1.2000000000000002 L 0 9.600000000000001 L 2.4000000000000004 1.2000000000000002 Q 2.4000000000000004 0 0 0 Z" class="thorn" style="fill: rgb(100, 111, 75); stroke: none; transform: matrix(0.98796, -0.15465, 0.15465, 0.98796, 450.59, 206.534);"/><path d="M 0 0 Q -5.2 0  -5.2 2.6 L 0 20.8 L 5.2 2.6 Q 5.2 0 0 0 Z" class="thorn" style="fill: rgb(100, 111, 75); stroke: none; transform: matrix(0.54993, 0.8352, -0.8352, 0.54993, 836.575, 200.35);"/><path d="M 0 0 Q -5.2 0  -5.2 2.6 L 0 20.8 L 5.2 2.6 Q 5.2 0 0 0 Z" class="thorn" style="fill: rgb(100, 111, 75); stroke: none; transform: matrix(-0.46127, -0.88725, 0.88725, -0.46127, 820.184, 199.294);"/><path d="M 0 0 Q -2.4000000000000004 0  -2.4000000000000004 1.2000000000000002 L 0 9.600000000000001 L 2.4000000000000004 1.2000000000000002 Q 2.4000000000000004 0 0 0 Z" class="thorn" style="fill: rgb(100, 111, 75); stroke: none; transform: matrix(0.84213, -0.53927, 0.53927, 0.84213, 458.354, 215.737);"/><path d="M 0 0 Q -6.4 0  -6.4 3.2 L 0 25.6 L 6.4 3.2 Q 6.4 0 0 0 Z" class="thorn" style="fill: rgb(100, 111, 75); stroke: none; transform: matrix(-0.73496, 0.6781, -0.6781, -0.73496, 197.84, -65.8273);"/><path d="M 0 0 Q -5.2 0  -5.2 2.6 L 0 20.8 L 5.2 2.6 Q 5.2 0 0 0 Z" class="thorn" style="fill: rgb(100, 111, 75); stroke: none; transform: matrix(-0.14977, 0.98872, -0.98872, -0.14977, 801.825, 198.72);"/><path d="M 0 0 Q -5.2 0  -5.2 2.6 L 0 20.8 L 5.2 2.6 Q 5.2 0 0 0 Z" class="thorn" style="fill: rgb(100, 111, 75); stroke: none; transform: matrix(0.98829, -0.15256, 0.15256, 0.98829, 750.33, 186.364);"/><path d="M 0 0 Q -5.2 0  -5.2 2.6 L 0 20.8 L 5.2 2.6 Q 5.2 0 0 0 Z" class="thorn" style="fill: rgb(100, 111, 75); stroke: none; transform: matrix(-0.87842, -0.47787, 0.47787, -0.87842, 740.05, 179.92);"/><path d="M 0 0 Q -6.4 0  -6.4 3.2 L 0 25.6 L 6.4 3.2 Q 6.4 0 0 0 Z" class="thorn" style="fill: rgb(100, 111, 75); stroke: none; transform: matrix(0.45211, 0.89195, -0.89195, 0.45211, 170.265, 48.2417);"/><path d="M 0 0 Q -5.2 0  -5.2 2.6 L 0 20.8 L 5.2 2.6 Q 5.2 0 0 0 Z" class="thorn" style="fill: rgb(100, 111, 75); stroke: none; transform: matrix(-0.78113, -0.62435, 0.62435, -0.78113, 728.618, 168.36);"/><path d="M 0 0 Q -6.4 0  -6.4 3.2 L 0 25.6 L 6.4 3.2 Q 6.4 0 0 0 Z" class="thorn" style="fill: rgb(100, 111, 75); stroke: none; transform: matrix(-0.0547, -0.9985, 0.9985, -0.0547, 126.395, 93.4369);"/><path d="M 0 0 Q -6.4 0  -6.4 3.2 L 0 25.6 L 6.4 3.2 Q 6.4 0 0 0 Z" class="thorn" style="fill: rgb(100, 111, 75); stroke: none; transform: matrix(-0.85763, 0.51426, -0.51426, -0.85763, 106.111, 100.822);"/><path d="M 0 0 Q -5.2 0  -5.2 2.6 L 0 20.8 L 5.2 2.6 Q 5.2 0 0 0 Z" class="thorn" style="fill: rgb(100, 111, 75); stroke: none; transform: matrix(0.90135, 0.43308, -0.43308, 0.90135, 717.981, 140.093);"/><path d="M 0 0 Q -6.4 0  -6.4 3.2 L 0 25.6 L 6.4 3.2 Q 6.4 0 0 0 Z" class="thorn" style="fill: rgb(100, 111, 75); stroke: none; transform: matrix(0.99747, 0.07106, -0.07106, 0.99747, 59.9163, 108.038);"/><path d="M 0 0 Q -6.4 0  -6.4 3.2 L 0 25.6 L 6.4 3.2 Q 6.4 0 0 0 Z" class="thorn" style="fill: rgb(100, 111, 75); stroke: none; transform: matrix(0.98459, -0.17485, 0.17485, 0.98459, 42.3239, 108.619);"/></g>
		<g id="leafGroup"><path d="M 0 0 Q -21.06174326587441 21.175105696248096  0 43.052040661378044 Q 21.06174326587441 21.175105696248096 0 0 Z" class="leaf" style="fill: rgb(0, 121, 86); stroke: none; transform: matrix(0.99051, 0.13739, -0.13739, 0.99051, 731.089, 144.611);"/><path d="M 0 0 Q -22.45686169357575 22.857926652784233  0 63.637410648631956 Q 22.45686169357575 22.857926652784233 0 0 Z" class="leaf" style="fill: rgb(0, 121, 86); stroke: none; transform: matrix(-0.93386, 0.35762, -0.35762, -0.93386, 661.19, 197.228);"/><path d="M 0 0 Q -24.50291386650438 22.286149772762084  0 47.24702282666445 Q 24.50291386650438 22.286149772762084 0 0 Z" class="leaf" style="fill: rgb(0, 166, 118); stroke: none; transform: matrix(-0.01626, -0.99986, 0.99986, -0.01626, 663.662, 224.131);"/><path d="M 0 0 Q -17.05536081931295 14.173550241709727  0 34.655908636701284 Q 17.05536081931295 14.173550241709727 0 0 Z" class="leaf" style="fill: rgb(0, 121, 86); stroke: none; transform: matrix(-0.60678, -0.79486, 0.79486, -0.60678, 713.124, 183.724);"/><path d="M 0 0 Q -16.2789350927308 19.273443721661074  0 44.91168153278449 Q 16.2789350927308 19.273443721661074 0 0 Z" class="leaf" style="fill: rgb(0, 136, 97); stroke: none; transform: matrix(-0.99256, 0.12167, -0.12167, -0.99256, 719.252, 202.787);"/><path d="M 0 0 Q -19.339872046468958 16.65054430186592  0 60.37458894760669 Q 19.339872046468958 16.65054430186592 0 0 Z" class="leaf" style="fill: rgb(0, 121, 86); stroke: none; transform: matrix(0.84091, -0.54116, 0.54116, 0.84091, 757.574, 207.814);"/><path d="M 0 0 Q -17.641183149943334 13.080739291417135  0 42.97269004502721 Q 17.641183149943334 13.080739291417135 0 0 Z" class="leaf" style="fill: rgb(0, 166, 118); stroke: none; transform: matrix(0.72878, 0.68474, -0.68474, 0.72878, 747.887, 229.453);"/><path d="M 0 0 Q -22.901286898093147 13.709219637292676  0 52.67982766364311 Q 22.901286898093147 13.709219637292676 0 0 Z" class="leaf" style="fill: rgb(0, 121, 86); stroke: none; transform: matrix(-0.73502, 0.67804, -0.67804, -0.73502, 753.441, 165.993);"/><path d="M 0 0 Q -19.572982699550277 17.006274244415117  0 45.99259262947334 Q 19.572982699550277 17.006274244415117 0 0 Z" class="leaf" style="fill: rgb(0, 136, 97); stroke: none; transform: matrix(0.91598, 0.4012, -0.4012, 0.91598, 769.114, 216.048);"/><path d="M 0 0 Q -17.626644208673095 15.214000225697008  0 44.869668856243905 Q 17.626644208673095 15.214000225697008 0 0 Z" class="leaf" style="fill: rgb(0, 136, 97); stroke: none; transform: matrix(-0.96901, 0.247, -0.247, -0.96901, 772.701, 197.17);"/><path d="M 0 0 Q -18.905091727666715 12.815641988932633  0 43.83881337380866 Q 18.905091727666715 12.815641988932633 0 0 Z" class="leaf" style="fill: rgb(0, 136, 97); stroke: none; transform: matrix(0.18864, -0.98204, 0.98204, 0.18864, 796.308, 154.81);"/><path d="M 0 0 Q -20.102035885986453 21.05328122675029  0 50.606783993781995 Q 20.102035885986453 21.05328122675029 0 0 Z" class="leaf" style="fill: rgb(0, 166, 118); stroke: none; transform: matrix(-0.47424, 0.88039, -0.88039, -0.47424, 650.581, 191.473);"/><path d="M 0 0 Q -19.24866148267799 22.478412751984877  0 59.945197599380755 Q 19.24866148267799 22.478412751984877 0 0 Z" class="leaf" style="fill: rgb(0, 136, 97); stroke: none; transform: matrix(0.73295, 0.68027, -0.68027, 0.73295, 648.322, 222.516);"/><path d="M 0 0 Q -18.921986925237523 14.23439009267049  0 39.501441444976464 Q 18.921986925237523 14.23439009267049 0 0 Z" class="leaf" style="fill: rgb(0, 166, 118); stroke: none; transform: matrix(-0.57732, 0.81651, -0.81651, -0.57732, 841.681, 192.116);"/><path d="M 0 0 Q -19.64376767919477 17.23885610516447  0 44.88657484659209 Q 19.64376767919477 17.23885610516447 0 0 Z" class="leaf" style="fill: rgb(0, 121, 86); stroke: none; transform: matrix(0.65396, -0.75652, 0.75652, 0.65396, 642.384, 244.742);"/><path d="M 0 0 Q -24.345311167257815 13.984419489791907  0 62.3747212302938 Q 24.345311167257815 13.984419489791907 0 0 Z" class="leaf" style="fill: rgb(0, 151, 108); stroke: none; transform: matrix(-0.80638, 0.59139, -0.59139, -0.80638, 624.034, 268.244);"/><path d="M 0 0 Q -16.07081888832019 13.29916159780777  0 39.754226363393464 Q 16.07081888832019 13.29916159780777 0 0 Z" class="leaf" style="fill: rgb(0, 121, 86); stroke: none; transform: matrix(0.89487, -0.44632, 0.44632, 0.89487, 834.732, 219.952);"/><path d="M 0 0 Q -19.956664889653858 20.00186204468873  0 49.18607833131886 Q 19.956664889653858 20.00186204468873 0 0 Z" class="leaf" style="fill: rgb(0, 136, 97); stroke: none; transform: matrix(-0.097, -0.99528, 0.99528, -0.097, 821.992, 231.099);"/><path d="M 0 0 Q -20.682318730709202 18.972804370612522  0 32.477948975290715 Q 20.682318730709202 18.972804370612522 0 0 Z" class="leaf" style="fill: rgb(0, 136, 97); stroke: none; transform: matrix(0.97611, 0.21727, -0.21727, 0.97611, 794.112, 236.001);"/><path d="M 0 0 Q -19.48743806937637 20.035979253458706  0 62.146305338768755 Q 19.48743806937637 20.035979253458706 0 0 Z" class="leaf" style="fill: rgb(0, 166, 118); stroke: none; transform: matrix(0.99258, -0.12157, 0.12157, 0.99258, 553.686, 236.688);"/><path d="M 0 0 Q -17.496282523331622 19.1139657435339  0 33.11777600646845 Q 17.496282523331622 19.1139657435339 0 0 Z" class="leaf" style="fill: rgb(0, 136, 97); stroke: none; transform: matrix(-0.96675, -0.25569, 0.25569, -0.96675, 768.018, 245.753);"/><path d="M 0 0 Q -21.05011329646759 13.528940733168392  0 53.45863015392344 Q 21.05011329646759 13.528940733168392 0 0 Z" class="leaf" style="fill: rgb(0, 151, 108); stroke: none; transform: matrix(-0.85469, 0.51913, -0.51913, -0.85469, 545.58, 193.089);"/><path d="M 0 0 Q -24.587646840493818 21.147168540259386  0 58.716125364950656 Q 24.587646840493818 21.147168540259386 0 0 Z" class="leaf" style="fill: rgb(0, 136, 97); stroke: none; transform: matrix(-0.96747, -0.25295, 0.25295, -0.96747, 537.536, 137.473);"/><path d="M 0 0 Q -20.224760184501964 23.2538882088826  0 56.08041064086095 Q 20.224760184501964 23.2538882088826 0 0 Z" class="leaf" style="fill: rgb(0, 151, 108); stroke: none; transform: matrix(-0.03771, 0.99928, -0.99928, -0.03771, 493.834, 104.781);"/><path d="M 0 0 Q -16.236165223213295 20.470913762634527  0 31.391884900064774 Q 16.236165223213295 20.470913762634527 0 0 Z" class="leaf" style="fill: rgb(0, 121, 86); stroke: none; transform: matrix(0.27585, -0.96119, 0.96119, 0.27585, 788.68, 340.973);"/><path d="M 0 0 Q -20.95020422365731 20.3610857313403  0 56.13408928538371 Q 20.95020422365731 20.3610857313403 0 0 Z" class="leaf" style="fill: rgb(0, 151, 108); stroke: none; transform: matrix(-0.18694, 0.98237, -0.98237, -0.18694, 458.231, 97.8112);"/><path d="M 0 0 Q -19.28505548047448 12.822381678247792  0 41.97615566403858 Q 19.28505548047448 12.822381678247792 0 0 Z" class="leaf" style="fill: rgb(0, 151, 108); stroke: none; transform: matrix(-0.79075, 0.61213, -0.61213, -0.79075, 816.774, 345.958);"/><path d="M 0 0 Q -21.336804502184282 16.250888687114806  0 61.05019551802957 Q 21.336804502184282 16.250888687114806 0 0 Z" class="leaf" style="fill: rgb(0, 121, 86); stroke: none; transform: matrix(-0.58148, 0.81355, -0.81355, -0.58148, 433.352, 96.456);"/><path d="M 0 0 Q -7.552379466336724 4.834586258205553  0 16.585800510122613 Q 7.552379466336724 4.834586258205553 0 0 Z" class="leaf" style="fill: rgb(0, 166, 118); stroke: none; transform: matrix(-0.19953, 0.97989, -0.97989, -0.19953, 518.883, 119.882);"/><path d="M 0 0 Q -17.402557866776117 16.874588747729796  0 39.78344651664532 Q 17.402557866776117 16.874588747729796 0 0 Z" class="leaf" style="fill: rgb(0, 166, 118); stroke: none; transform: matrix(-0.50491, 0.86317, -0.86317, -0.50491, 841.668, 346.419);"/><path d="M 0 0 Q -19.680523689432395 20.538856873636245  0 52.874148472634126 Q 19.680523689432395 20.538856873636245 0 0 Z" class="leaf" style="fill: rgb(0, 166, 118); stroke: none; transform: matrix(0.32037, 0.94729, -0.94729, 0.32037, 375.124, 84.3895);"/><path d="M 0 0 Q -19.049883304122783 17.069872287855187  0 46.31626460295656 Q 19.049883304122783 17.069872287855187 0 0 Z" class="leaf" style="fill: rgb(0, 136, 97); stroke: none; transform: matrix(-0.12678, -0.99192, 0.99192, -0.12678, 888.657, 321.257);"/><path d="M 0 0 Q -20.840298644868927 16.4724775490004  0 43.04725392676148 Q 20.840298644868927 16.4724775490004 0 0 Z" class="leaf" style="fill: rgb(0, 136, 97); stroke: none; transform: matrix(0.84735, -0.53102, 0.53102, 0.84735, 346.462, 49.5939);"/><path d="M 0 0 Q -8.514227158443504 7.286932492638006  0 16.064536090844285 Q 8.514227158443504 7.286932492638006 0 0 Z" class="leaf" style="fill: rgb(0, 136, 97); stroke: none; transform: matrix(0.65576, 0.75496, -0.75496, 0.65576, 480.478, 165.946);"/><path d="M 0 0 Q -19.41387743840706 22.081577592321924  0 53.26243011272384 Q 19.41387743840706 22.081577592321924 0 0 Z" class="leaf" style="fill: rgb(0, 136, 97); stroke: none; transform: matrix(-0.66821, 0.74396, -0.74396, -0.66821, 339.864, 6.78312);"/><path d="M 0 0 Q -19.899970792880975 17.088217643040142  0 35.13843897136277 Q 19.899970792880975 17.088217643040142 0 0 Z" class="leaf" style="fill: rgb(0, 151, 108); stroke: none; transform: matrix(0.68123, 0.73206, -0.73206, 0.68123, 898.067, 279.667);"/><path d="M 0 0 Q -7.56864875646696 5.660614744093924  0 16.127429824488647 Q 7.56864875646696 5.660614744093924 0 0 Z" class="leaf" style="fill: rgb(0, 121, 86); stroke: none; transform: matrix(-0.40621, -0.91377, 0.91377, -0.40621, 471.208, 166.402);"/><path d="M 0 0 Q -20.20552880006636 23.174066785115578  0 55.61578364652105 Q 20.20552880006636 23.174066785115578 0 0 Z" class="leaf" style="fill: rgb(0, 121, 86); stroke: none; transform: matrix(0.91368, -0.40641, 0.40641, 0.91368, 332.672, -41.8493);"/><path d="M 0 0 Q -20.423028103200387 19.66678287711821  0 45.66117275397499 Q 20.423028103200387 19.66678287711821 0 0 Z" class="leaf" style="fill: rgb(0, 136, 97); stroke: none; transform: matrix(0.26609, 0.96394, -0.96394, 0.26609, 876.697, 217.619);"/><path d="M 0 0 Q -7.3514293508527375 8.482681217217696  0 15.468674929284312 Q 7.3514293508527375 8.482681217217696 0 0 Z" class="leaf" style="fill: rgb(0, 136, 97); stroke: none; transform: matrix(-0.10873, -0.99407, 0.99407, -0.10873, 447.864, 189.048);"/><path d="M 0 0 Q -20.882191835788255 13.437503441924969  0 58.76456298989194 Q 20.882191835788255 13.437503441924969 0 0 Z" class="leaf" style="fill: rgb(0, 151, 108); stroke: none; transform: matrix(-0.58247, -0.81285, 0.81285, -0.58247, 268.58, -89.7944);"/><path d="M 0 0 Q -16.35920904276125 13.165360271867332  0 35.326993066673396 Q 16.35920904276125 13.165360271867332 0 0 Z" class="leaf" style="fill: rgb(0, 121, 86); stroke: none; transform: matrix(0.95543, 0.29519, -0.29519, 0.95543, 857.819, 205.752);"/><path d="M 0 0 Q -21.397496600645255 19.46967033855755  0 41.94035630759601 Q 21.397496600645255 19.46967033855755 0 0 Z" class="leaf" style="fill: rgb(0, 151, 108); stroke: none; transform: matrix(0.99985, 0.01685, -0.01685, 0.99985, 250.493, -89.9252);"/><path d="M 0 0 Q -7.9481818517929925 8.909527708402326  0 18.14828213424807 Q 7.9481818517929925 8.909527708402326 0 0 Z" class="leaf" style="fill: rgb(0, 136, 97); stroke: none; transform: matrix(-0.16427, 0.98641, -0.98641, -0.16427, 449.994, 205.169);"/><path d="M 0 0 Q -21.776797214433085 20.673977544178555  0 45.90218480065329 Q 21.776797214433085 20.673977544178555 0 0 Z" class="leaf" style="fill: rgb(0, 121, 86); stroke: none; transform: matrix(-0.75684, 0.65359, -0.65359, -0.75684, 216.716, -81.039);"/><path d="M 0 0 Q -8.433793287523574 7.571909578960375  0 18.749377032862384 Q 8.433793287523574 7.571909578960375 0 0 Z" class="leaf" style="fill: rgb(0, 121, 86); stroke: none; transform: matrix(-0.65856, 0.75252, -0.75252, -0.65856, 456.471, 214.271);"/><path d="M 0 0 Q -20.620809356030932 15.841893278910744  0 53.05313245926309 Q 20.620809356030932 15.841893278910744 0 0 Z" class="leaf" style="fill: rgb(0, 151, 108); stroke: none; transform: matrix(-0.5267, 0.85004, -0.85004, -0.5267, 200.555, -68.8465);"/><path d="M 0 0 Q -17.976843282764257 19.178301227836673  0 41.505504652402735 Q 17.976843282764257 19.178301227836673 0 0 Z" class="leaf" style="fill: rgb(0, 121, 86); stroke: none; transform: matrix(0.67727, 0.73572, -0.73572, 0.67727, 809.644, 199.121);"/><path d="M 0 0 Q -8.769404202115652 8.557990217998196  0 21.97261777814901 Q 8.769404202115652 8.557990217998196 0 0 Z" class="leaf" style="fill: rgb(0, 136, 97); stroke: none; transform: matrix(-0.27632, 0.96106, -0.96106, -0.27632, 468.255, 220.262);"/><path d="M 0 0 Q -20.382560012903603 22.7311314749651  0 61.104729330228885 Q 20.382560012903603 22.7311314749651 0 0 Z" class="leaf" style="fill: rgb(0, 136, 97); stroke: none; transform: matrix(-0.81126, 0.58468, -0.58468, -0.81126, 180.72, -29.9772);"/><path d="M 0 0 Q -8.422225683454483 7.523966369465843  0 22.828170554159474 Q 8.422225683454483 7.523966369465843 0 0 Z" class="leaf" style="fill: rgb(0, 136, 97); stroke: none; transform: matrix(-0.9709, 0.23948, -0.23948, -0.9709, 473.464, 221.397);"/><path d="M 0 0 Q -22.67476642186192 24.28860182670041  0 61.611344723812294 Q 22.67476642186192 24.28860182670041 0 0 Z" class="leaf" style="fill: rgb(0, 151, 108); stroke: none; transform: matrix(0.99988, -0.0152, 0.0152, 0.99988, 176.939, -5.57377);"/><path d="M 0 0 Q -17.76004893450007 15.386800347482298  0 37.225688685478396 Q 17.76004893450007 15.386800347482298 0 0 Z" class="leaf" style="fill: rgb(0, 136, 97); stroke: none; transform: matrix(0.76225, -0.64728, 0.64728, 0.76225, 754.941, 188.561);"/><path d="M 0 0 Q -9.171655986095452 5.795305737364273  0 18.79769589953346 Q 9.171655986095452 5.795305737364273 0 0 Z" class="leaf" style="fill: rgb(0, 121, 86); stroke: none; transform: matrix(0.30567, -0.95213, 0.95213, 0.30567, 481.225, 222.166);"/><path d="M 0 0 Q -22.00656868925434 19.85262006853859  0 39.28519360539556 Q 22.00656868925434 19.85262006853859 0 0 Z" class="leaf" style="fill: rgb(0, 121, 86); stroke: none; transform: matrix(-0.68765, 0.72604, -0.72604, -0.68765, 174.737, 31.3808);"/><path d="M 0 0 Q -18.298566041331497 18.06501462487732  0 36.39328528941016 Q 18.298566041331497 18.06501462487732 0 0 Z" class="leaf" style="fill: rgb(0, 151, 108); stroke: none; transform: matrix(-0.43715, -0.89938, 0.89938, -0.43715, 744.614, 183.092);"/><path d="M 0 0 Q -9.555654669673743 5.545418641582611  0 19.743084374878553 Q 9.555654669673743 5.545418641582611 0 0 Z" class="leaf" style="fill: rgb(0, 151, 108); stroke: none; transform: matrix(-0.42092, 0.90709, -0.90709, -0.42092, 483.836, 222.237);"/><path d="M 0 0 Q -16.811715532141573 11.83879511301601  0 36.08488708332263 Q 16.811715532141573 11.83879511301601 0 0 Z" class="leaf" style="fill: rgb(0, 121, 86); stroke: none; transform: matrix(-0.87134, -0.49067, 0.49067, -0.87134, 736.726, 177.201);"/><path d="M 0 0 Q -8.734632104954336 9.45051850775156  0 21.187921853275878 Q 8.734632104954336 9.45051850775156 0 0 Z" class="leaf" style="fill: rgb(0, 121, 86); stroke: none; transform: matrix(-0.88249, 0.47031, -0.47031, -0.88249, 484.778, 222.243);"/><path d="M 0 0 Q -22.64775393684316 16.214905505547534  0 58.69421977109394 Q 22.64775393684316 16.214905505547534 0 0 Z" class="leaf" style="fill: rgb(0, 136, 97); stroke: none; transform: matrix(0.98425, -0.17676, 0.17676, 0.98425, 161.282, 65.3631);"/><path d="M 0 0 Q -18.947454329051425 18.978439949069553  0 39.35537382901619 Q 18.947454329051425 18.978439949069553 0 0 Z" class="leaf" style="fill: rgb(0, 166, 118); stroke: none; transform: matrix(-0.1361, -0.99069, 0.99069, -0.1361, 730.562, 170.858);"/><path d="M 0 0 Q -22.31643078497915 19.50838215958528  0 43.12390180386856 Q 22.31643078497915 19.50838215958528 0 0 Z" class="leaf" style="fill: rgb(0, 136, 97); stroke: none; transform: matrix(-0.52852, -0.84891, 0.84891, -0.52852, 144.194, 82.8988);"/><path d="M 0 0 Q -20.92635935860219 20.114494173745  0 61.86847968464546 Q 20.92635935860219 20.114494173745 0 0 Z" class="leaf" style="fill: rgb(0, 151, 108); stroke: none; transform: matrix(0.53688, 0.84365, -0.84365, 0.53688, 136.916, 87.8317);"/><path d="M 0 0 Q -17.38513428534308 13.723964873193063  0 32.48494302398553 Q 17.38513428534308 13.723964873193063 0 0 Z" class="leaf" style="fill: rgb(0, 121, 86); stroke: none; transform: matrix(-0.28688, -0.95796, 0.95796, -0.28688, 721.434, 154.862);"/><path d="M 0 0 Q -24.570711964460124 16.98739650597952  0 43.49765302045235 Q 24.570711964460124 16.98739650597952 0 0 Z" class="leaf" style="fill: rgb(0, 151, 108); stroke: none; transform: matrix(-0.59448, 0.8041, -0.8041, -0.59448, 111.019, 99.3587);"/><path d="M 0 0 Q -17.790425428326685 13.414890044332237  0 34.59199853346504 Q 17.790425428326685 13.414890044332237 0 0 Z" class="leaf" style="fill: rgb(0, 121, 86); stroke: none; transform: matrix(-0.84552, 0.53393, -0.53393, -0.84552, 718.188, 141.681);"/><path d="M 0 0 Q -22.994248306777468 18.058229920436254  0 62.429186630077 Q 22.994248306777468 18.058229920436254 0 0 Z" class="leaf" style="fill: rgb(0, 136, 97); stroke: none; transform: matrix(0.2108, 0.97752, -0.97752, 0.2108, 85.7864, 105.244);"/><path d="M 0 0 Q -16.881939033182576 17.38875085004227  0 43.31228995051262 Q 16.881939033182576 17.38875085004227 0 0 Z" class="leaf" style="fill: rgb(0, 136, 97); stroke: none; transform: matrix(0.70161, -0.71255, 0.71255, 0.70161, 717.41, 130.57);"/><path d="M 0 0 Q -20.547486890103873 15.705372047621559  0 55.774699889029286 Q 20.547486890103873 15.705372047621559 0 0 Z" class="leaf" style="fill: rgb(0, 151, 108); stroke: none; transform: matrix(-0.85261, 0.52254, -0.52254, -0.85261, 64.4697, 107.73);"/><path d="M 0 0 Q -19.430723008720538 14.668134795854408  0 45.30745281261221 Q 19.430723008720538 14.668134795854408 0 0 Z" class="leaf" style="fill: rgb(0, 151, 108); stroke: none; transform: matrix(0.99269, 0.12066, -0.12066, 0.99269, 717.409, 130.18);"/><path d="M 0 0 Q -19.375297264179274 20.940710704594913  0 49.894820938121605 Q 19.375297264179274 20.940710704594913 0 0 Z" class="leaf" style="fill: rgb(0, 166, 118); stroke: none; transform: matrix(-0.48281, -0.87572, 0.87572, -0.48281, 49.5091, 108.491);"/><path d="M 0 0 Q -22.195152969493492 19.97446379534162  0 59.11715478854307 Q 22.195152969493492 19.97446379534162 0 0 Z" class="leaf" style="fill: rgb(0, 151, 108); stroke: none; transform: matrix(-0.67019, 0.74218, -0.74218, -0.67019, 43.5822, 108.607);"/><path d="M 0 0 Q -20.34422203466338 20.93104733184897  0 61.77204745362591 Q 20.34422203466338 20.93104733184897 0 0 Z" class="leaf" style="fill: rgb(0, 166, 118); stroke: none; transform: matrix(-0.1609, -0.98696, 0.98696, -0.1609, 39.5796, 108.631);"/></g>
		<g id="flowerGroup"><path d="M 0 0 Q -10.4 18.720000000000002  0 41.6 Q 10.4 18.720000000000002 0 0 Z" class="petal" style="fill: rgb(66, 150, 248); stroke: none; transform: matrix(0.90391, 0.4277, -0.4277, 0.90391, 753.11, 277.219);"/><path d="M 0 0 Q -10.4 18.720000000000002  0 41.6 Q 10.4 18.720000000000002 0 0 Z" class="petal" style="fill: rgb(66, 150, 248); stroke: none; transform: matrix(0.95005, -0.31206, 0.31206, 0.95005, 753.11, 277.219);"/><path d="M 0 0 Q -10.4 18.720000000000002  0 41.6 Q 10.4 18.720000000000002 0 0 Z" class="petal" style="fill: rgb(66, 150, 248); stroke: none; transform: matrix(0.02447, -0.9997, 0.9997, 0.02447, 753.11, 277.219);"/><path d="M 0 0 Q -10.4 18.720000000000002  0 41.6 Q 10.4 18.720000000000002 0 0 Z" class="petal" style="fill: rgb(66, 150, 248); stroke: none; transform: matrix(-0.74856, -0.66306, 0.66306, -0.74856, 753.11, 277.219);"/><path d="M 0 0 Q -10.4 18.720000000000002  0 41.6 Q 10.4 18.720000000000002 0 0 Z" class="petal" style="fill: rgb(66, 150, 248); stroke: none; transform: matrix(-0.99386, -0.11063, 0.11063, -0.99386, 753.11, 277.219);"/><path d="M 0 0 Q -10.4 18.720000000000002  0 41.6 Q 10.4 18.720000000000002 0 0 Z" class="petal" style="fill: rgb(66, 150, 248); stroke: none; transform: matrix(-0.74229, 0.67007, -0.67007, -0.74229, 753.11, 277.219);"/><path d="M 0 0 Q -10.4 18.720000000000002  0 41.6 Q 10.4 18.720000000000002 0 0 Z" class="petal" style="fill: rgb(66, 150, 248); stroke: none; transform: matrix(0.13446, 0.99091, -0.99091, 0.13446, 753.11, 277.219);"/><path d="M 0 0 Q -10.4 18.720000000000002  0 41.6 Q 10.4 18.720000000000002 0 0 Z" class="petal" style="fill: rgb(66, 150, 248); stroke: none; transform: matrix(0.7398, 0.67281, -0.67281, 0.7398, 753.11, 277.219);"/><path d="M 0 0 Q -5.2 9.360000000000001  0 20.8 Q 5.2 9.360000000000001 0 0 Z" class="petal" style="fill: rgb(236, 174, 58); stroke: none; transform: matrix3d(0.76639, -0.641705, 0, 0, 0.641705, 0.76639, 0, 0, 0, 0, 1, 0, 753.11, 277.219, 0, 1);"/><path d="M 0 0 Q -5.2 9.360000000000001  0 20.8 Q 5.2 9.360000000000001 0 0 Z" class="petal" style="fill: rgb(236, 174, 58); stroke: none; transform: matrix3d(-0.304393, -0.951519, 0, 0, 0.951519, -0.304393, 0, 0, 0, 0, 1, 0, 753.11, 277.219, 0, 1);"/><path d="M 0 0 Q -5.2 9.360000000000001  0 20.8 Q 5.2 9.360000000000001 0 0 Z" class="petal" style="fill: rgb(236, 174, 58); stroke: none; transform: matrix3d(-0.506636, -0.85977, 0, 0, 0.85977, -0.506636, 0, 0, 0, 0, 1, 0, 753.11, 277.219, 0, 1);"/><path d="M 0 0 Q -5.2 9.360000000000001  0 20.8 Q 5.2 9.360000000000001 0 0 Z" class="petal" style="fill: rgb(236, 174, 58); stroke: none; transform: matrix3d(-0.646482, 0.760266, 0, 0, -0.760266, -0.646482, 0, 0, 0, 0, 1, 0, 753.11, 277.219, 0, 1);"/><path d="M 0 0 Q -5.2 9.360000000000001  0 20.8 Q 5.2 9.360000000000001 0 0 Z" class="petal" style="fill: rgb(236, 174, 58); stroke: none; transform: matrix3d(-0.309686, 0.948692, 0, 0, -0.948692, -0.309686, 0, 0, 0, 0, 1, 0, 753.11, 277.219, 0, 1);"/><path d="M 0 0 Q -5.2 9.360000000000001  0 20.8 Q 5.2 9.360000000000001 0 0 Z" class="petal" style="fill: rgb(236, 174, 58); stroke: none; transform: matrix3d(0.372296, 0.926198, 0, 0, -0.926198, 0.372296, 0, 0, 0, 0, 1, 0, 753.11, 277.219, 0, 1);"/><path d="M 0 0 Q -10.4 18.720000000000002  0 41.6 Q 10.4 18.720000000000002 0 0 Z" class="petal" style="fill: rgb(66, 150, 248); stroke: none; transform: matrix(0.89665, -0.44273, 0.44273, 0.89665, 864.333, 341.73);"/><path d="M 0 0 Q -10.4 18.720000000000002  0 41.6 Q 10.4 18.720000000000002 0 0 Z" class="petal" style="fill: rgb(66, 150, 248); stroke: none; transform: matrix(0.55705, -0.83047, 0.83047, 0.55705, 864.333, 341.73);"/><path d="M 0 0 Q -10.4 18.720000000000002  0 41.6 Q 10.4 18.720000000000002 0 0 Z" class="petal" style="fill: rgb(66, 150, 248); stroke: none; transform: matrix(-0.72613, -0.68755, 0.68755, -0.72613, 864.333, 341.73);"/><path d="M 0 0 Q -10.4 18.720000000000002  0 41.6 Q 10.4 18.720000000000002 0 0 Z" class="petal" style="fill: rgb(66, 150, 248); stroke: none; transform: matrix(-0.99993, 0.01099, -0.01099, -0.99993, 864.333, 341.73);"/><path d="M 0 0 Q -10.4 18.720000000000002  0 41.6 Q 10.4 18.720000000000002 0 0 Z" class="petal" style="fill: rgb(66, 150, 248); stroke: none; transform: matrix(-0.75015, 0.66125, -0.66125, -0.75015, 864.333, 341.73);"/><path d="M 0 0 Q -10.4 18.720000000000002  0 41.6 Q 10.4 18.720000000000002 0 0 Z" class="petal" style="fill: rgb(66, 150, 248); stroke: none; transform: matrix(-0.10974, 0.99395, -0.99395, -0.10974, 864.333, 341.73);"/><path d="M 0 0 Q -10.4 18.720000000000002  0 41.6 Q 10.4 18.720000000000002 0 0 Z" class="petal" style="fill: rgb(66, 150, 248); stroke: none; transform: matrix(0.32253, 0.94655, -0.94655, 0.32253, 864.333, 341.73);"/><path d="M 0 0 Q -10.4 18.720000000000002  0 41.6 Q 10.4 18.720000000000002 0 0 Z" class="petal" style="fill: rgb(66, 150, 248); stroke: none; transform: matrix(0.99983, -0.01795, 0.01795, 0.99983, 864.333, 341.73);"/><path d="M 0 0 Q -5.2 9.360000000000001  0 20.8 Q 5.2 9.360000000000001 0 0 Z" class="petal" style="fill: rgb(236, 174, 58); stroke: none; transform: matrix3d(0.488958, -0.87382, 0, 0, 0.87382, 0.488958, 0, 0, 0, 0, 1, 0, 864.333, 341.73, 0, 1);"/><path d="M 0 0 Q -5.2 9.360000000000001  0 20.8 Q 5.2 9.360000000000001 0 0 Z" class="petal" style="fill: rgb(236, 174, 58); stroke: none; transform: matrix3d(-0.524828, -0.852948, 0, 0, 0.852948, -0.524828, 0, 0, 0, 0, 1, 0, 864.333, 341.73, 0, 1);"/><path d="M 0 0 Q -5.2 9.360000000000001  0 20.8 Q 5.2 9.360000000000001 0 0 Z" class="petal" style="fill: rgb(236, 174, 58); stroke: none; transform: matrix3d(-0.969763, -0.255856, 0, 0, 0.255856, -0.969763, 0, 0, 0, 0, 1, 0, 864.333, 341.73, 0, 1);"/><path d="M 0 0 Q -5.2 9.360000000000001  0 20.8 Q 5.2 9.360000000000001 0 0 Z" class="petal" style="fill: rgb(236, 174, 58); stroke: none; transform: matrix3d(-0.560068, 0.827403, 0, 0, -0.827403, -0.560068, 0, 0, 0, 0, 1, 0, 864.333, 341.73, 0, 1);"/><path d="M 0 0 Q -5.2 9.360000000000001  0 20.8 Q 5.2 9.360000000000001 0 0 Z" class="petal" style="fill: rgb(236, 174, 58); stroke: none; transform: matrix3d(-0.581989, 0.818776, 0, 0, -0.818776, -0.581989, 0, 0, 0, 0, 1, 0, 864.333, 341.73, 0, 1);"/><path d="M 0 0 Q -5.2 9.360000000000001  0 20.8 Q 5.2 9.360000000000001 0 0 Z" class="petal" style="fill: rgb(236, 174, 58); stroke: none; transform: matrix3d(0.996654, 0.0963509, 0, 0, -0.0963509, 0.996654, 0, 0, 0, 0, 1, 0, 864.333, 341.73, 0, 1);"/><path d="M 0 0 Q -4.800000000000001 8.640000000000002  0 19.200000000000003 Q 4.800000000000001 8.640000000000002 0 0 Z" class="petal" style="fill: rgb(66, 150, 248); stroke: none; transform: matrix(0.99718, -0.07501, 0.07501, 0.99718, 493.964, 160.575);"/><path d="M 0 0 Q -4.800000000000001 8.640000000000002  0 19.200000000000003 Q 4.800000000000001 8.640000000000002 0 0 Z" class="petal" style="fill: rgb(66, 150, 248); stroke: none; transform: matrix(0.63164, -0.77525, 0.77525, 0.63164, 493.964, 160.575);"/><path d="M 0 0 Q -4.800000000000001 8.640000000000002  0 19.200000000000003 Q 4.800000000000001 8.640000000000002 0 0 Z" class="petal" style="fill: rgb(66, 150, 248); stroke: none; transform: matrix(0.32313, -0.94635, 0.94635, 0.32313, 493.964, 160.575);"/><path d="M 0 0 Q -4.800000000000001 8.640000000000002  0 19.200000000000003 Q 4.800000000000001 8.640000000000002 0 0 Z" class="petal" style="fill: rgb(66, 150, 248); stroke: none; transform: matrix(-0.5393, -0.84211, 0.84211, -0.5393, 493.964, 160.575);"/><path d="M 0 0 Q -4.800000000000001 8.640000000000002  0 19.200000000000003 Q 4.800000000000001 8.640000000000002 0 0 Z" class="petal" style="fill: rgb(66, 150, 248); stroke: none; transform: matrix(-0.99547, -0.09499, 0.09499, -0.99547, 493.964, 160.575);"/><path d="M 0 0 Q -4.800000000000001 8.640000000000002  0 19.200000000000003 Q 4.800000000000001 8.640000000000002 0 0 Z" class="petal" style="fill: rgb(66, 150, 248); stroke: none; transform: matrix(-0.86365, 0.50408, -0.50408, -0.86365, 493.964, 160.575);"/><path d="M 0 0 Q -4.800000000000001 8.640000000000002  0 19.200000000000003 Q 4.800000000000001 8.640000000000002 0 0 Z" class="petal" style="fill: rgb(66, 150, 248); stroke: none; transform: matrix(-0.2402, 0.97072, -0.97072, -0.2402, 493.964, 160.575);"/><path d="M 0 0 Q -4.800000000000001 8.640000000000002  0 19.200000000000003 Q 4.800000000000001 8.640000000000002 0 0 Z" class="petal" style="fill: rgb(66, 150, 248); stroke: none; transform: matrix(0.36301, 0.93178, -0.93178, 0.36301, 493.964, 160.575);"/><path d="M 0 0 Q -2.4000000000000004 4.320000000000001  0 9.600000000000001 Q 2.4000000000000004 4.320000000000001 0 0 Z" class="petal" style="fill: rgb(236, 174, 58); stroke: none; transform: matrix3d(0.25177, -0.969366, 0, 0, 0.969366, 0.25177, 0, 0, 0, 0, 1, 0, 493.964, 160.575, 0, 1);"/><path d="M 0 0 Q -2.4000000000000004 4.320000000000001  0 9.600000000000001 Q 2.4000000000000004 4.320000000000001 0 0 Z" class="petal" style="fill: rgb(236, 174, 58); stroke: none; transform: matrix3d(0.589877, -0.809277, 0, 0, 0.809277, 0.589877, 0, 0, 0, 0, 1, 0, 493.964, 160.575, 0, 1);"/><path d="M 0 0 Q -2.4000000000000004 4.320000000000001  0 9.600000000000001 Q 2.4000000000000004 4.320000000000001 0 0 Z" class="petal" style="fill: rgb(236, 174, 58); stroke: none; transform: matrix3d(-0.463959, -0.887904, 0, 0, 0.887904, -0.463959, 0, 0, 0, 0, 1, 0, 493.964, 160.575, 0, 1);"/><path d="M 0 0 Q -2.4000000000000004 4.320000000000001  0 9.600000000000001 Q 2.4000000000000004 4.320000000000001 0 0 Z" class="petal" style="fill: rgb(236, 174, 58); stroke: none; transform: matrix3d(-0.886039, 0.474045, 0, 0, -0.474045, -0.886039, 0, 0, 0, 0, 1, 0, 493.964, 160.575, 0, 1);"/><path d="M 0 0 Q -2.4000000000000004 4.320000000000001  0 9.600000000000001 Q 2.4000000000000004 4.320000000000001 0 0 Z" class="petal" style="fill: rgb(236, 174, 58); stroke: none; transform: matrix3d(0.671259, 0.747906, 0, 0, -0.747906, 0.671259, 0, 0, 0, 0, 1, 0, 493.964, 160.575, 0, 1);"/><path d="M 0 0 Q -2.4000000000000004 4.320000000000001  0 9.600000000000001 Q 2.4000000000000004 4.320000000000001 0 0 Z" class="petal" style="fill: rgb(236, 174, 58); stroke: none; transform: matrix3d(0.708601, 0.708871, 0, 0, -0.708871, 0.708601, 0, 0, 0, 0, 1, 0, 493.964, 160.575, 0, 1);"/><path d="M 0 0 Q -12.8 23.040000000000003  0 51.2 Q 12.8 23.040000000000003 0 0 Z" class="petal" style="fill: rgb(66, 150, 248); stroke: none; transform: matrix(0.98317, 0.18264, -0.18264, 0.98317, 343.336, 39.4241);"/><path d="M 0 0 Q -12.8 23.040000000000003  0 51.2 Q 12.8 23.040000000000003 0 0 Z" class="petal" style="fill: rgb(66, 150, 248); stroke: none; transform: matrix(0.62345, -0.78185, 0.78185, 0.62345, 343.336, 39.4241);"/><path d="M 0 0 Q -12.8 23.040000000000003  0 51.2 Q 12.8 23.040000000000003 0 0 Z" class="petal" style="fill: rgb(66, 150, 248); stroke: none; transform: matrix(-0.01483, -0.99988, 0.99988, -0.01483, 343.336, 39.4241);"/><path d="M 0 0 Q -12.8 23.040000000000003  0 51.2 Q 12.8 23.040000000000003 0 0 Z" class="petal" style="fill: rgb(66, 150, 248); stroke: none; transform: matrix(-0.38769, -0.92178, 0.92178, -0.38769, 343.336, 39.4241);"/><path d="M 0 0 Q -12.8 23.040000000000003  0 51.2 Q 12.8 23.040000000000003 0 0 Z" class="petal" style="fill: rgb(66, 150, 248); stroke: none; transform: matrix(-0.97937, 0.20205, -0.20205, -0.97937, 343.336, 39.4241);"/><path d="M 0 0 Q -12.8 23.040000000000003  0 51.2 Q 12.8 23.040000000000003 0 0 Z" class="petal" style="fill: rgb(66, 150, 248); stroke: none; transform: matrix(-0.91905, 0.39412, -0.39412, -0.91905, 343.336, 39.4241);"/><path d="M 0 0 Q -12.8 23.040000000000003  0 51.2 Q 12.8 23.040000000000003 0 0 Z" class="petal" style="fill: rgb(66, 150, 248); stroke: none; transform: matrix(0.16057, 0.98702, -0.98702, 0.16057, 343.336, 39.4241);"/><path d="M 0 0 Q -12.8 23.040000000000003  0 51.2 Q 12.8 23.040000000000003 0 0 Z" class="petal" style="fill: rgb(66, 150, 248); stroke: none; transform: matrix(0.77952, 0.62636, -0.62636, 0.77952, 343.336, 39.4241);"/><path d="M 0 0 Q -6.4 11.520000000000001  0 25.6 Q 6.4 11.520000000000001 0 0 Z" class="petal" style="fill: rgb(236, 174, 58); stroke: none; transform: matrix3d(0.920312, -0.401713, 0, 0, 0.401713, 0.920312, 0, 0, 0, 0, 1, 0, 343.336, 39.4241, 0, 1);"/><path d="M 0 0 Q -6.4 11.520000000000001  0 25.6 Q 6.4 11.520000000000001 0 0 Z" class="petal" style="fill: rgb(236, 174, 58); stroke: none; transform: matrix3d(-0.189333, -0.983515, 0, 0, 0.983515, -0.189333, 0, 0, 0, 0, 1, 0, 343.336, 39.4241, 0, 1);"/><path d="M 0 0 Q -6.4 11.520000000000001  0 25.6 Q 6.4 11.520000000000001 0 0 Z" class="petal" style="fill: rgb(236, 174, 58); stroke: none; transform: matrix3d(-0.899758, 0.436203, 0, 0, -0.436203, -0.899758, 0, 0, 0, 0, 1, 0, 343.336, 39.4241, 0, 1);"/><path d="M 0 0 Q -6.4 11.520000000000001  0 25.6 Q 6.4 11.520000000000001 0 0 Z" class="petal" style="fill: rgb(236, 174, 58); stroke: none; transform: matrix3d(-0.529773, 0.854354, 0, 0, -0.854354, -0.529773, 0, 0, 0, 0, 1, 0, 343.336, 39.4241, 0, 1);"/><path d="M 0 0 Q -6.4 11.520000000000001  0 25.6 Q 6.4 11.520000000000001 0 0 Z" class="petal" style="fill: rgb(236, 174, 58); stroke: none; transform: matrix3d(-0.0247537, 1.00268, 0, 0, -1.00268, -0.0247537, 0, 0, 0, 0, 1, 0, 343.336, 39.4241, 0, 1);"/><path d="M 0 0 Q -6.4 11.520000000000001  0 25.6 Q 6.4 11.520000000000001 0 0 Z" class="petal" style="fill: rgb(236, 174, 58); stroke: none; transform: matrix3d(0.694975, 0.721243, 0, 0, -0.721243, 0.694975, 0, 0, 0, 0, 1, 0, 343.336, 39.4241, 0, 1);"/><path d="M 0 0 Q -4.800000000000001 8.640000000000002  0 19.200000000000003 Q 4.800000000000001 8.640000000000002 0 0 Z" class="petal" style="fill: rgb(66, 150, 248); stroke: none; transform: matrix(0.56631, -0.82418, 0.82418, 0.56631, 457.871, 169.992);"/><path d="M 0 0 Q -4.800000000000001 8.640000000000002  0 19.200000000000003 Q 4.800000000000001 8.640000000000002 0 0 Z" class="petal" style="fill: rgb(66, 150, 248); stroke: none; transform: matrix(-0.54741, -0.83686, 0.83686, -0.54741, 457.871, 169.992);"/><path d="M 0 0 Q -4.800000000000001 8.640000000000002  0 19.200000000000003 Q 4.800000000000001 8.640000000000002 0 0 Z" class="petal" style="fill: rgb(66, 150, 248); stroke: none; transform: matrix(-0.9102, -0.41416, 0.41416, -0.9102, 457.871, 169.992);"/><path d="M 0 0 Q -4.800000000000001 8.640000000000002  0 19.200000000000003 Q 4.800000000000001 8.640000000000002 0 0 Z" class="petal" style="fill: rgb(66, 150, 248); stroke: none; transform: matrix(-0.97375, 0.22758, -0.22758, -0.97375, 457.871, 169.992);"/><path d="M 0 0 Q -4.800000000000001 8.640000000000002  0 19.200000000000003 Q 4.800000000000001 8.640000000000002 0 0 Z" class="petal" style="fill: rgb(66, 150, 248); stroke: none; transform: matrix(-0.32561, 0.9455, -0.9455, -0.32561, 457.871, 169.992);"/><path d="M 0 0 Q -4.800000000000001 8.640000000000002  0 19.200000000000003 Q 4.800000000000001 8.640000000000002 0 0 Z" class="petal" style="fill: rgb(66, 150, 248); stroke: none; transform: matrix(0.55479, 0.83198, -0.83198, 0.55479, 457.871, 169.992);"/><path d="M 0 0 Q -4.800000000000001 8.640000000000002  0 19.200000000000003 Q 4.800000000000001 8.640000000000002 0 0 Z" class="petal" style="fill: rgb(66, 150, 248); stroke: none; transform: matrix(0.7938, 0.60816, -0.60816, 0.7938, 457.871, 169.992);"/><path d="M 0 0 Q -4.800000000000001 8.640000000000002  0 19.200000000000003 Q 4.800000000000001 8.640000000000002 0 0 Z" class="petal" style="fill: rgb(66, 150, 248); stroke: none; transform: matrix(0.86936, -0.49416, 0.49416, 0.86936, 457.871, 169.992);"/><path d="M 0 0 Q -2.4000000000000004 4.320000000000001  0 9.600000000000001 Q 2.4000000000000004 4.320000000000001 0 0 Z" class="petal" style="fill: rgb(236, 174, 58); stroke: none; transform: matrix3d(0.542458, -0.843386, 0, 0, 0.843386, 0.542458, 0, 0, 0, 0, 1, 0, 457.871, 169.992, 0, 1);"/><path d="M 0 0 Q -2.4000000000000004 4.320000000000001  0 9.600000000000001 Q 2.4000000000000004 4.320000000000001 0 0 Z" class="petal" style="fill: rgb(236, 174, 58); stroke: none; transform: matrix3d(-0.156959, -0.993458, 0, 0, 0.993458, -0.156959, 0, 0, 0, 0, 1, 0, 457.871, 169.992, 0, 1);"/><path d="M 0 0 Q -2.4000000000000004 4.320000000000001  0 9.600000000000001 Q 2.4000000000000004 4.320000000000001 0 0 Z" class="petal" style="fill: rgb(236, 174, 58); stroke: none; transform: matrix3d(-0.656262, -0.761334, 0, 0, 0.761334, -0.656262, 0, 0, 0, 0, 1, 0, 457.871, 169.992, 0, 1);"/><path d="M 0 0 Q -2.4000000000000004 4.320000000000001  0 9.600000000000001 Q 2.4000000000000004 4.320000000000001 0 0 Z" class="petal" style="fill: rgb(236, 174, 58); stroke: none; transform: matrix3d(-0.351037, 0.938502, 0, 0, -0.938502, -0.351037, 0, 0, 0, 0, 1, 0, 457.871, 169.992, 0, 1);"/><path d="M 0 0 Q -2.4000000000000004 4.320000000000001  0 9.600000000000001 Q 2.4000000000000004 4.320000000000001 0 0 Z" class="petal" style="fill: rgb(236, 174, 58); stroke: none; transform: matrix3d(0.803068, 0.605462, 0, 0, -0.605462, 0.803068, 0, 0, 0, 0, 1, 0, 457.871, 169.992, 0, 1);"/><path d="M 0 0 Q -2.4000000000000004 4.320000000000001  0 9.600000000000001 Q 2.4000000000000004 4.320000000000001 0 0 Z" class="petal" style="fill: rgb(236, 174, 58); stroke: none; transform: matrix3d(1.00304, -0.0688222, 0, 0, 0.0688222, 1.00304, 0, 0, 0, 0, 1, 0, 457.871, 169.992, 0, 1);"/><path d="M 0 0 Q -10.4 18.720000000000002  0 41.6 Q 10.4 18.720000000000002 0 0 Z" class="petal" style="fill: rgb(66, 150, 248); stroke: none; transform: matrix(0.553, -0.83317, 0.83317, 0.553, 882.752, 224.27);"/><path d="M 0 0 Q -10.4 18.720000000000002  0 41.6 Q 10.4 18.720000000000002 0 0 Z" class="petal" style="fill: rgb(66, 150, 248); stroke: none; transform: matrix(-0.40918, -0.91245, 0.91245, -0.40918, 882.752, 224.27);"/><path d="M 0 0 Q -10.4 18.720000000000002  0 41.6 Q 10.4 18.720000000000002 0 0 Z" class="petal" style="fill: rgb(66, 150, 248); stroke: none; transform: matrix(-0.78721, -0.61668, 0.61668, -0.78721, 882.752, 224.27);"/><path d="M 0 0 Q -10.4 18.720000000000002  0 41.6 Q 10.4 18.720000000000002 0 0 Z" class="petal" style="fill: rgb(66, 150, 248); stroke: none; transform: matrix(-0.99974, 0.02264, -0.02264, -0.99974, 882.752, 224.27);"/><path d="M 0 0 Q -10.4 18.720000000000002  0 41.6 Q 10.4 18.720000000000002 0 0 Z" class="petal" style="fill: rgb(66, 150, 248); stroke: none; transform: matrix(-0.47308, 0.88101, -0.88101, -0.47308, 882.752, 224.27);"/><path d="M 0 0 Q -10.4 18.720000000000002  0 41.6 Q 10.4 18.720000000000002 0 0 Z" class="petal" style="fill: rgb(66, 150, 248); stroke: none; transform: matrix(-0.13802, 0.99042, -0.99042, -0.13802, 882.752, 224.27);"/><path d="M 0 0 Q -10.4 18.720000000000002  0 41.6 Q 10.4 18.720000000000002 0 0 Z" class="petal" style="fill: rgb(66, 150, 248); stroke: none; transform: matrix(0.55047, 0.83484, -0.83484, 0.55047, 882.752, 224.27);"/><path d="M 0 0 Q -10.4 18.720000000000002  0 41.6 Q 10.4 18.720000000000002 0 0 Z" class="petal" style="fill: rgb(66, 150, 248); stroke: none; transform: matrix(0.98459, 0.17483, -0.17483, 0.98459, 882.752, 224.27);"/><path d="M 0 0 Q -5.2 9.360000000000001  0 20.8 Q 5.2 9.360000000000001 0 0 Z" class="petal" style="fill: rgb(236, 174, 58); stroke: none; transform: matrix3d(0.399325, -0.922799, 0, 0, 0.922799, 0.399325, 0, 0, 0, 0, 1, 0, 882.752, 224.27, 0, 1);"/><path d="M 0 0 Q -5.2 9.360000000000001  0 20.8 Q 5.2 9.360000000000001 0 0 Z" class="petal" style="fill: rgb(236, 174, 58); stroke: none; transform: matrix3d(-0.523124, -0.856197, 0, 0, 0.856197, -0.523124, 0, 0, 0, 0, 1, 0, 882.752, 224.27, 0, 1);"/><path d="M 0 0 Q -5.2 9.360000000000001  0 20.8 Q 5.2 9.360000000000001 0 0 Z" class="petal" style="fill: rgb(236, 174, 58); stroke: none; transform: matrix3d(-1.00495, -0.0381235, 0, 0, 0.0381235, -1.00495, 0, 0, 0, 0, 1, 0, 882.752, 224.27, 0, 1);"/><path d="M 0 0 Q -5.2 9.360000000000001  0 20.8 Q 5.2 9.360000000000001 0 0 Z" class="petal" style="fill: rgb(236, 174, 58); stroke: none; transform: matrix3d(-0.379932, 0.928547, 0, 0, -0.928547, -0.379932, 0, 0, 0, 0, 1, 0, 882.752, 224.27, 0, 1);"/><path d="M 0 0 Q -5.2 9.360000000000001  0 20.8 Q 5.2 9.360000000000001 0 0 Z" class="petal" style="fill: rgb(236, 174, 58); stroke: none; transform: matrix3d(0.363089, 0.937996, 0, 0, -0.937996, 0.363089, 0, 0, 0, 0, 1, 0, 882.752, 224.27, 0, 1);"/><path d="M 0 0 Q -5.2 9.360000000000001  0 20.8 Q 5.2 9.360000000000001 0 0 Z" class="petal" style="fill: rgb(236, 174, 58); stroke: none; transform: matrix3d(1.00106, 0.0869729, 0, 0, -0.0869729, 1.00106, 0, 0, 0, 0, 1, 0, 882.752, 224.27, 0, 1);"/><path d="M 0 0 Q -10.4 18.720000000000002  0 41.6 Q 10.4 18.720000000000002 0 0 Z" class="petal" style="fill: rgb(66, 150, 248); stroke: none; transform: matrix(0.55103, -0.83448, 0.83448, 0.55103, 822.953, 199.331);"/><path d="M 0 0 Q -10.4 18.720000000000002  0 41.6 Q 10.4 18.720000000000002 0 0 Z" class="petal" style="fill: rgb(66, 150, 248); stroke: none; transform: matrix(-0.2295, -0.9733, 0.9733, -0.2295, 822.953, 199.331);"/><path d="M 0 0 Q -10.4 18.720000000000002  0 41.6 Q 10.4 18.720000000000002 0 0 Z" class="petal" style="fill: rgb(66, 150, 248); stroke: none; transform: matrix(-0.54206, -0.84033, 0.84033, -0.54206, 822.953, 199.331);"/><path d="M 0 0 Q -10.4 18.720000000000002  0 41.6 Q 10.4 18.720000000000002 0 0 Z" class="petal" style="fill: rgb(66, 150, 248); stroke: none; transform: matrix(-0.90806, 0.41881, -0.41881, -0.90806, 822.953, 199.331);"/><path d="M 0 0 Q -10.4 18.720000000000002  0 41.6 Q 10.4 18.720000000000002 0 0 Z" class="petal" style="fill: rgb(66, 150, 248); stroke: none; transform: matrix(-0.35773, 0.93382, -0.93382, -0.35773, 822.953, 199.331);"/><path d="M 0 0 Q -10.4 18.720000000000002  0 41.6 Q 10.4 18.720000000000002 0 0 Z" class="petal" style="fill: rgb(66, 150, 248); stroke: none; transform: matrix(0.14197, 0.98987, -0.98987, 0.14197, 822.953, 199.331);"/><path d="M 0 0 Q -10.4 18.720000000000002  0 41.6 Q 10.4 18.720000000000002 0 0 Z" class="petal" style="fill: rgb(66, 150, 248); stroke: none; transform: matrix(0.53095, 0.8474, -0.8474, 0.53095, 822.953, 199.331);"/><path d="M 0 0 Q -10.4 18.720000000000002  0 41.6 Q 10.4 18.720000000000002 0 0 Z" class="petal" style="fill: rgb(66, 150, 248); stroke: none; transform: matrix(0.99264, 0.12102, -0.12102, 0.99264, 822.953, 199.331);"/><path d="M 0 0 Q -5.2 9.360000000000001  0 20.8 Q 5.2 9.360000000000001 0 0 Z" class="petal" style="fill: rgb(236, 174, 58); stroke: none; transform: matrix3d(0.33207, -0.949168, 0, 0, 0.949168, 0.33207, 0, 0, 0, 0, 1, 0, 822.953, 199.331, 0, 1);"/><path d="M 0 0 Q -5.2 9.360000000000001  0 20.8 Q 5.2 9.360000000000001 0 0 Z" class="petal" style="fill: rgb(236, 174, 58); stroke: none; transform: matrix3d(-0.389712, -0.927263, 0, 0, 0.927263, -0.389712, 0, 0, 0, 0, 1, 0, 822.953, 199.331, 0, 1);"/><path d="M 0 0 Q -5.2 9.360000000000001  0 20.8 Q 5.2 9.360000000000001 0 0 Z" class="petal" style="fill: rgb(236, 174, 58); stroke: none; transform: matrix3d(-1.00471, 0.0388915, 0, 0, -0.0388915, -1.00471, 0, 0, 0, 0, 1, 0, 822.953, 199.331, 0, 1);"/><path d="M 0 0 Q -5.2 9.360000000000001  0 20.8 Q 5.2 9.360000000000001 0 0 Z" class="petal" style="fill: rgb(236, 174, 58); stroke: none; transform: matrix3d(-0.391067, 0.920143, 0, 0, -0.920143, -0.391067, 0, 0, 0, 0, 1, 0, 822.953, 199.331, 0, 1);"/><path d="M 0 0 Q -5.2 9.360000000000001  0 20.8 Q 5.2 9.360000000000001 0 0 Z" class="petal" style="fill: rgb(236, 174, 58); stroke: none; transform: matrix3d(0.00508547, 1.00171, 0, 0, -1.00171, 0.00508547, 0, 0, 0, 0, 1, 0, 822.953, 199.331, 0, 1);"/><path d="M 0 0 Q -5.2 9.360000000000001  0 20.8 Q 5.2 9.360000000000001 0 0 Z" class="petal" style="fill: rgb(236, 174, 58); stroke: none; transform: matrix3d(0.547122, 0.843875, 0, 0, -0.843875, 0.547122, 0, 0, 0, 0, 1, 0, 822.953, 199.331, 0, 1);"/><path d="M 0 0 Q -10.4 18.720000000000002  0 41.6 Q 10.4 18.720000000000002 0 0 Z" class="petal" style="fill: rgb(66, 150, 248); stroke: none; transform: matrix(0.77353, -0.63375, 0.63375, 0.77353, 779.515, 195.935);"/><path d="M 0 0 Q -10.4 18.720000000000002  0 41.6 Q 10.4 18.720000000000002 0 0 Z" class="petal" style="fill: rgb(66, 150, 248); stroke: none; transform: matrix(0.07751, -0.99699, 0.99699, 0.07751, 779.515, 195.935);"/><path d="M 0 0 Q -10.4 18.720000000000002  0 41.6 Q 10.4 18.720000000000002 0 0 Z" class="petal" style="fill: rgb(66, 150, 248); stroke: none; transform: matrix(-0.39369, -0.91923, 0.91923, -0.39369, 779.515, 195.935);"/><path d="M 0 0 Q -10.4 18.720000000000002  0 41.6 Q 10.4 18.720000000000002 0 0 Z" class="petal" style="fill: rgb(66, 150, 248); stroke: none; transform: matrix(-0.77747, -0.62891, 0.62891, -0.77747, 779.515, 195.935);"/><path d="M 0 0 Q -10.4 18.720000000000002  0 41.6 Q 10.4 18.720000000000002 0 0 Z" class="petal" style="fill: rgb(66, 150, 248); stroke: none; transform: matrix(-0.98755, 0.15726, -0.15726, -0.98755, 779.515, 195.935);"/><path d="M 0 0 Q -10.4 18.720000000000002  0 41.6 Q 10.4 18.720000000000002 0 0 Z" class="petal" style="fill: rgb(66, 150, 248); stroke: none; transform: matrix(-0.32495, 0.94572, -0.94572, -0.32495, 779.515, 195.935);"/><path d="M 0 0 Q -10.4 18.720000000000002  0 41.6 Q 10.4 18.720000000000002 0 0 Z" class="petal" style="fill: rgb(66, 150, 248); stroke: none; transform: matrix(0.23611, 0.97172, -0.97172, 0.23611, 779.515, 195.935);"/><path d="M 0 0 Q -10.4 18.720000000000002  0 41.6 Q 10.4 18.720000000000002 0 0 Z" class="petal" style="fill: rgb(66, 150, 248); stroke: none; transform: matrix(0.93618, 0.35152, -0.35152, 0.93618, 779.515, 195.935);"/><path d="M 0 0 Q -5.2 9.360000000000001  0 20.8 Q 5.2 9.360000000000001 0 0 Z" class="petal" style="fill: rgb(236, 174, 58); stroke: none; transform: matrix3d(0.444404, -0.888287, 0, 0, 0.888287, 0.444404, 0, 0, 0, 0, 1, 0, 779.515, 195.935, 0, 1);"/><path d="M 0 0 Q -5.2 9.360000000000001  0 20.8 Q 5.2 9.360000000000001 0 0 Z" class="petal" style="fill: rgb(236, 174, 58); stroke: none; transform: matrix3d(0.487252, -0.870676, 0, 0, 0.870676, 0.487252, 0, 0, 0, 0, 1, 0, 779.515, 195.935, 0, 1);"/><path d="M 0 0 Q -5.2 9.360000000000001  0 20.8 Q 5.2 9.360000000000001 0 0 Z" class="petal" style="fill: rgb(236, 174, 58); stroke: none; transform: matrix3d(-0.986732, 0.181749, 0, 0, -0.181749, -0.986732, 0, 0, 0, 0, 1, 0, 779.515, 195.935, 0, 1);"/><path d="M 0 0 Q -5.2 9.360000000000001  0 20.8 Q 5.2 9.360000000000001 0 0 Z" class="petal" style="fill: rgb(236, 174, 58); stroke: none; transform: matrix3d(-0.972043, 0.221615, 0, 0, -0.221615, -0.972043, 0, 0, 0, 0, 1, 0, 779.515, 195.935, 0, 1);"/><path d="M 0 0 Q -5.2 9.360000000000001  0 20.8 Q 5.2 9.360000000000001 0 0 Z" class="petal" style="fill: rgb(236, 174, 58); stroke: none; transform: matrix3d(0.0511479, 0.992241, 0, 0, -0.992241, 0.0511479, 0, 0, 0, 0, 1, 0, 779.515, 195.935, 0, 1);"/><path d="M 0 0 Q -5.2 9.360000000000001  0 20.8 Q 5.2 9.360000000000001 0 0 Z" class="petal" style="fill: rgb(236, 174, 58); stroke: none; transform: matrix3d(0.997209, 0.0748324, 0, 0, -0.0748324, 0.997209, 0, 0, 0, 0, 1, 0, 779.515, 195.935, 0, 1);"/><path d="M 0 0 Q -4.800000000000001 8.640000000000002  0 19.200000000000003 Q 4.800000000000001 8.640000000000002 0 0 Z" class="petal" style="fill: rgb(66, 150, 248); stroke: none; transform: matrix(0.87563, -0.48297, 0.48297, 0.87563, 474.975, 221.623);"/><path d="M 0 0 Q -4.800000000000001 8.640000000000002  0 19.200000000000003 Q 4.800000000000001 8.640000000000002 0 0 Z" class="petal" style="fill: rgb(66, 150, 248); stroke: none; transform: matrix(0.58607, -0.81025, 0.81025, 0.58607, 474.975, 221.623);"/><path d="M 0 0 Q -4.800000000000001 8.640000000000002  0 19.200000000000003 Q 4.800000000000001 8.640000000000002 0 0 Z" class="petal" style="fill: rgb(66, 150, 248); stroke: none; transform: matrix(-0.72387, -0.68993, 0.68993, -0.72387, 474.975, 221.623);"/><path d="M 0 0 Q -4.800000000000001 8.640000000000002  0 19.200000000000003 Q 4.800000000000001 8.640000000000002 0 0 Z" class="petal" style="fill: rgb(66, 150, 248); stroke: none; transform: matrix(-0.99999, -0.00167, 0.00167, -0.99999, 474.975, 221.623);"/><path d="M 0 0 Q -4.800000000000001 8.640000000000002  0 19.200000000000003 Q 4.800000000000001 8.640000000000002 0 0 Z" class="petal" style="fill: rgb(66, 150, 248); stroke: none; transform: matrix(-0.89139, 0.45323, -0.45323, -0.89139, 474.975, 221.623);"/><path d="M 0 0 Q -4.800000000000001 8.640000000000002  0 19.200000000000003 Q 4.800000000000001 8.640000000000002 0 0 Z" class="petal" style="fill: rgb(66, 150, 248); stroke: none; transform: matrix(-0.00285, 0.99999, -0.99999, -0.00285, 474.975, 221.623);"/><path d="M 0 0 Q -4.800000000000001 8.640000000000002  0 19.200000000000003 Q 4.800000000000001 8.640000000000002 0 0 Z" class="petal" style="fill: rgb(66, 150, 248); stroke: none; transform: matrix(0.42506, 0.90516, -0.90516, 0.42506, 474.975, 221.623);"/><path d="M 0 0 Q -4.800000000000001 8.640000000000002  0 19.200000000000003 Q 4.800000000000001 8.640000000000002 0 0 Z" class="petal" style="fill: rgb(66, 150, 248); stroke: none; transform: matrix(0.80344, 0.59537, -0.59537, 0.80344, 474.975, 221.623);"/><path d="M 0 0 Q -2.4000000000000004 4.320000000000001  0 9.600000000000001 Q 2.4000000000000004 4.320000000000001 0 0 Z" class="petal" style="fill: rgb(236, 174, 58); stroke: none; transform: matrix3d(0.449377, -0.891542, 0, 0, 0.891542, 0.449377, 0, 0, 0, 0, 1, 0, 474.975, 221.623, 0, 1);"/><path d="M 0 0 Q -2.4000000000000004 4.320000000000001  0 9.600000000000001 Q 2.4000000000000004 4.320000000000001 0 0 Z" class="petal" style="fill: rgb(236, 174, 58); stroke: none; transform: matrix3d(-0.72975, -0.68935, 0, 0, 0.68935, -0.72975, 0, 0, 0, 0, 1, 0, 474.975, 221.623, 0, 1);"/><path d="M 0 0 Q -2.4000000000000004 4.320000000000001  0 9.600000000000001 Q 2.4000000000000004 4.320000000000001 0 0 Z" class="petal" style="fill: rgb(236, 174, 58); stroke: none; transform: matrix3d(-0.997931, 0.0709375, 0, 0, -0.0709375, -0.997931, 0, 0, 0, 0, 1, 0, 474.975, 221.623, 0, 1);"/><path d="M 0 0 Q -2.4000000000000004 4.320000000000001  0 9.600000000000001 Q 2.4000000000000004 4.320000000000001 0 0 Z" class="petal" style="fill: rgb(236, 174, 58); stroke: none; transform: matrix3d(-0.61372, 0.7874, 0, 0, -0.7874, -0.61372, 0, 0, 0, 0, 1, 0, 474.975, 221.623, 0, 1);"/><path d="M 0 0 Q -2.4000000000000004 4.320000000000001  0 9.600000000000001 Q 2.4000000000000004 4.320000000000001 0 0 Z" class="petal" style="fill: rgb(236, 174, 58); stroke: none; transform: matrix3d(-0.392424, 0.919704, 0, 0, -0.919704, -0.392424, 0, 0, 0, 0, 1, 0, 474.975, 221.623, 0, 1);"/><path d="M 0 0 Q -2.4000000000000004 4.320000000000001  0 9.600000000000001 Q 2.4000000000000004 4.320000000000001 0 0 Z" class="petal" style="fill: rgb(236, 174, 58); stroke: none; transform: matrix3d(0.852498, -0.524033, 0, 0, 0.524033, 0.852498, 0, 0, 0, 0, 1, 0, 474.975, 221.623, 0, 1);"/><path d="M 0 0 Q -12.8 23.040000000000003  0 51.2 Q 12.8 23.040000000000003 0 0 Z" class="petal" style="fill: rgb(66, 150, 248); stroke: none; transform: matrix(0.84378, -0.53667, 0.53667, 0.84378, 164.538, 60.293);"/><path d="M 0 0 Q -12.8 23.040000000000003  0 51.2 Q 12.8 23.040000000000003 0 0 Z" class="petal" style="fill: rgb(66, 150, 248); stroke: none; transform: matrix(0.41268, -0.91087, 0.91087, 0.41268, 164.538, 60.293);"/><path d="M 0 0 Q -12.8 23.040000000000003  0 51.2 Q 12.8 23.040000000000003 0 0 Z" class="petal" style="fill: rgb(66, 150, 248); stroke: none; transform: matrix(-0.59623, -0.80281, 0.80281, -0.59623, 164.538, 60.293);"/><path d="M 0 0 Q -12.8 23.040000000000003  0 51.2 Q 12.8 23.040000000000003 0 0 Z" class="petal" style="fill: rgb(66, 150, 248); stroke: none; transform: matrix(-0.89297, -0.45011, 0.45011, -0.89297, 164.538, 60.293);"/><path d="M 0 0 Q -12.8 23.040000000000003  0 51.2 Q 12.8 23.040000000000003 0 0 Z" class="petal" style="fill: rgb(66, 150, 248); stroke: none; transform: matrix(-0.93086, 0.36537, -0.36537, -0.93086, 164.538, 60.293);"/><path d="M 0 0 Q -12.8 23.040000000000003  0 51.2 Q 12.8 23.040000000000003 0 0 Z" class="petal" style="fill: rgb(66, 150, 248); stroke: none; transform: matrix(-0.63501, 0.77249, -0.77249, -0.63501, 164.538, 60.293);"/><path d="M 0 0 Q -12.8 23.040000000000003  0 51.2 Q 12.8 23.040000000000003 0 0 Z" class="petal" style="fill: rgb(66, 150, 248); stroke: none; transform: matrix(0.20371, 0.97903, -0.97903, 0.20371, 164.538, 60.293);"/><path d="M 0 0 Q -12.8 23.040000000000003  0 51.2 Q 12.8 23.040000000000003 0 0 Z" class="petal" style="fill: rgb(66, 150, 248); stroke: none; transform: matrix(0.9916, 0.12933, -0.12933, 0.9916, 164.538, 60.293);"/><path d="M 0 0 Q -6.4 11.520000000000001  0 25.6 Q 6.4 11.520000000000001 0 0 Z" class="petal" style="fill: rgb(236, 174, 58); stroke: none; transform: matrix3d(0.476835, -0.878155, 0, 0, 0.878155, 0.476835, 0, 0, 0, 0, 1, 0, 164.538, 60.293, 0, 1);"/><path d="M 0 0 Q -6.4 11.520000000000001  0 25.6 Q 6.4 11.520000000000001 0 0 Z" class="petal" style="fill: rgb(236, 174, 58); stroke: none; transform: matrix3d(-0.397636, -0.902585, 0, 0, 0.902585, -0.397636, 0, 0, 0, 0, 1, 0, 164.538, 60.293, 0, 1);"/><path d="M 0 0 Q -6.4 11.520000000000001  0 25.6 Q 6.4 11.520000000000001 0 0 Z" class="petal" style="fill: rgb(236, 174, 58); stroke: none; transform: matrix3d(-0.754154, -0.634916, 0, 0, 0.634916, -0.754154, 0, 0, 0, 0, 1, 0, 164.538, 60.293, 0, 1);"/><path d="M 0 0 Q -6.4 11.520000000000001  0 25.6 Q 6.4 11.520000000000001 0 0 Z" class="petal" style="fill: rgb(236, 174, 58); stroke: none; transform: matrix3d(-0.991559, 0.0714567, 0, 0, -0.0714567, -0.991559, 0, 0, 0, 0, 1, 0, 164.538, 60.293, 0, 1);"/><path d="M 0 0 Q -6.4 11.520000000000001  0 25.6 Q 6.4 11.520000000000001 0 0 Z" class="petal" style="fill: rgb(236, 174, 58); stroke: none; transform: matrix3d(0.02836, 0.984426, 0, 0, -0.984426, 0.02836, 0, 0, 0, 0, 1, 0, 164.538, 60.293, 0, 1);"/><path d="M 0 0 Q -6.4 11.520000000000001  0 25.6 Q 6.4 11.520000000000001 0 0 Z" class="petal" style="fill: rgb(236, 174, 58); stroke: none; transform: matrix3d(0.990445, 0.125477, 0, 0, -0.125477, 0.990445, 0, 0, 0, 0, 1, 0, 164.538, 60.293, 0, 1);"/><path d="M 0 0 Q -4.800000000000001 8.640000000000002  0 19.200000000000003 Q 4.800000000000001 8.640000000000002 0 0 Z" class="petal" style="fill: rgb(66, 150, 248); stroke: none; transform: matrix(0.43656, -0.89967, 0.89967, 0.43656, 484.892, 222.243);"/><path d="M 0 0 Q -4.800000000000001 8.640000000000002  0 19.200000000000003 Q 4.800000000000001 8.640000000000002 0 0 Z" class="petal" style="fill: rgb(66, 150, 248); stroke: none; transform: matrix(-0.31209, -0.95005, 0.95005, -0.31209, 484.892, 222.243);"/><path d="M 0 0 Q -4.800000000000001 8.640000000000002  0 19.200000000000003 Q 4.800000000000001 8.640000000000002 0 0 Z" class="petal" style="fill: rgb(66, 150, 248); stroke: none; transform: matrix(-0.50225, -0.86471, 0.86471, -0.50225, 484.892, 222.243);"/><path d="M 0 0 Q -4.800000000000001 8.640000000000002  0 19.200000000000003 Q 4.800000000000001 8.640000000000002 0 0 Z" class="petal" style="fill: rgb(66, 150, 248); stroke: none; transform: matrix(-0.99135, 0.13123, -0.13123, -0.99135, 484.892, 222.243);"/><path d="M 0 0 Q -4.800000000000001 8.640000000000002  0 19.200000000000003 Q 4.800000000000001 8.640000000000002 0 0 Z" class="petal" style="fill: rgb(66, 150, 248); stroke: none; transform: matrix(-0.63836, 0.76973, -0.76973, -0.63836, 484.892, 222.243);"/><path d="M 0 0 Q -4.800000000000001 8.640000000000002  0 19.200000000000003 Q 4.800000000000001 8.640000000000002 0 0 Z" class="petal" style="fill: rgb(66, 150, 248); stroke: none; transform: matrix(0.30047, 0.95379, -0.95379, 0.30047, 484.892, 222.243);"/><path d="M 0 0 Q -4.800000000000001 8.640000000000002  0 19.200000000000003 Q 4.800000000000001 8.640000000000002 0 0 Z" class="petal" style="fill: rgb(66, 150, 248); stroke: none; transform: matrix(0.62959, 0.77692, -0.77692, 0.62959, 484.892, 222.243);"/><path d="M 0 0 Q -4.800000000000001 8.640000000000002  0 19.200000000000003 Q 4.800000000000001 8.640000000000002 0 0 Z" class="petal" style="fill: rgb(66, 150, 248); stroke: none; transform: matrix(0.95317, -0.30241, 0.30241, 0.95317, 484.892, 222.243);"/><path d="M 0 0 Q -2.4000000000000004 4.320000000000001  0 9.600000000000001 Q 2.4000000000000004 4.320000000000001 0 0 Z" class="petal" style="fill: rgb(236, 174, 58); stroke: none; transform: matrix3d(0.754654, -0.642487, 0, 0, 0.642487, 0.754654, 0, 0, 0, 0, 1, 0, 484.892, 222.243, 0, 1);"/><path d="M 0 0 Q -2.4000000000000004 4.320000000000001  0 9.600000000000001 Q 2.4000000000000004 4.320000000000001 0 0 Z" class="petal" style="fill: rgb(236, 174, 58); stroke: none; transform: matrix3d(-0.330958, -0.935, 0, 0, 0.935, -0.330958, 0, 0, 0, 0, 1, 0, 484.892, 222.243, 0, 1);"/><path d="M 0 0 Q -2.4000000000000004 4.320000000000001  0 9.600000000000001 Q 2.4000000000000004 4.320000000000001 0 0 Z" class="petal" style="fill: rgb(236, 174, 58); stroke: none; transform: matrix3d(-0.449937, -0.890977, 0, 0, 0.890977, -0.449937, 0, 0, 0, 0, 1, 0, 484.892, 222.243, 0, 1);"/><path d="M 0 0 Q -2.4000000000000004 4.320000000000001  0 9.600000000000001 Q 2.4000000000000004 4.320000000000001 0 0 Z" class="petal" style="fill: rgb(236, 174, 58); stroke: none; transform: matrix3d(-0.834471, 0.545102, 0, 0, -0.545102, -0.834471, 0, 0, 0, 0, 1, 0, 484.892, 222.243, 0, 1);"/><path d="M 0 0 Q -2.4000000000000004 4.320000000000001  0 9.600000000000001 Q 2.4000000000000004 4.320000000000001 0 0 Z" class="petal" style="fill: rgb(236, 174, 58); stroke: none; transform: matrix3d(0.440415, 0.891151, 0, 0, -0.891151, 0.440415, 0, 0, 0, 0, 1, 0, 484.892, 222.243, 0, 1);"/><path d="M 0 0 Q -2.4000000000000004 4.320000000000001  0 9.600000000000001 Q 2.4000000000000004 4.320000000000001 0 0 Z" class="petal" style="fill: rgb(236, 174, 58); stroke: none; transform: matrix3d(0.962423, 0.224425, 0, 0, -0.224425, 0.962423, 0, 0, 0, 0, 1, 0, 484.892, 222.243, 0, 1);"/><path d="M 0 0 Q -10.4 18.720000000000002  0 41.6 Q 10.4 18.720000000000002 0 0 Z" class="petal" style="fill: rgb(66, 150, 248); stroke: none; transform: matrix(0.99282, 0.11956, -0.11956, 0.99282, 721.894, 156.076);"/><path d="M 0 0 Q -10.4 18.720000000000002  0 41.6 Q 10.4 18.720000000000002 0 0 Z" class="petal" style="fill: rgb(66, 150, 248); stroke: none; transform: matrix(0.69588, -0.71815, 0.71815, 0.69588, 721.894, 156.076);"/><path d="M 0 0 Q -10.4 18.720000000000002  0 41.6 Q 10.4 18.720000000000002 0 0 Z" class="petal" style="fill: rgb(66, 150, 248); stroke: none; transform: matrix(0.06483, -0.99789, 0.99789, 0.06483, 721.894, 156.076);"/><path d="M 0 0 Q -10.4 18.720000000000002  0 41.6 Q 10.4 18.720000000000002 0 0 Z" class="petal" style="fill: rgb(66, 150, 248); stroke: none; transform: matrix(-0.85931, -0.51144, 0.51144, -0.85931, 721.894, 156.076);"/><path d="M 0 0 Q -10.4 18.720000000000002  0 41.6 Q 10.4 18.720000000000002 0 0 Z" class="petal" style="fill: rgb(66, 150, 248); stroke: none; transform: matrix(-0.9862, 0.16551, -0.16551, -0.9862, 721.894, 156.076);"/><path d="M 0 0 Q -10.4 18.720000000000002  0 41.6 Q 10.4 18.720000000000002 0 0 Z" class="petal" style="fill: rgb(66, 150, 248); stroke: none; transform: matrix(-0.2883, 0.95753, -0.95753, -0.2883, 721.894, 156.076);"/><path d="M 0 0 Q -10.4 18.720000000000002  0 41.6 Q 10.4 18.720000000000002 0 0 Z" class="petal" style="fill: rgb(66, 150, 248); stroke: none; transform: matrix(0.37982, 0.92505, -0.92505, 0.37982, 721.894, 156.076);"/><path d="M 0 0 Q -10.4 18.720000000000002  0 41.6 Q 10.4 18.720000000000002 0 0 Z" class="petal" style="fill: rgb(66, 150, 248); stroke: none; transform: matrix(0.67731, 0.73569, -0.73569, 0.67731, 721.894, 156.076);"/><path d="M 0 0 Q -5.2 9.360000000000001  0 20.8 Q 5.2 9.360000000000001 0 0 Z" class="petal" style="fill: rgb(236, 174, 58); stroke: none; transform: matrix3d(0.758925, -0.625725, 0, 0, 0.625725, 0.758925, 0, 0, 0, 0, 1, 0, 721.894, 156.076, 0, 1);"/><path d="M 0 0 Q -5.2 9.360000000000001  0 20.8 Q 5.2 9.360000000000001 0 0 Z" class="petal" style="fill: rgb(236, 174, 58); stroke: none; transform: matrix3d(-0.178584, -0.96722, 0, 0, 0.96722, -0.178584, 0, 0, 0, 0, 1, 0, 721.894, 156.076, 0, 1);"/><path d="M 0 0 Q -5.2 9.360000000000001  0 20.8 Q 5.2 9.360000000000001 0 0 Z" class="petal" style="fill: rgb(236, 174, 58); stroke: none; transform: matrix3d(-0.61856, -0.764689, 0, 0, 0.764689, -0.61856, 0, 0, 0, 0, 1, 0, 721.894, 156.076, 0, 1);"/><path d="M 0 0 Q -5.2 9.360000000000001  0 20.8 Q 5.2 9.360000000000001 0 0 Z" class="petal" style="fill: rgb(236, 174, 58); stroke: none; transform: matrix3d(-0.977374, 0.191112, 0, 0, -0.191112, -0.977374, 0, 0, 0, 0, 1, 0, 721.894, 156.076, 0, 1);"/><path d="M 0 0 Q -5.2 9.360000000000001  0 20.8 Q 5.2 9.360000000000001 0 0 Z" class="petal" style="fill: rgb(236, 174, 58); stroke: none; transform: matrix3d(0.732997, 0.667371, 0, 0, -0.667371, 0.732997, 0, 0, 0, 0, 1, 0, 721.894, 156.076, 0, 1);"/><path d="M 0 0 Q -5.2 9.360000000000001  0 20.8 Q 5.2 9.360000000000001 0 0 Z" class="petal" style="fill: rgb(236, 174, 58); stroke: none; transform: matrix3d(0.965788, -0.191847, 0, 0, 0.191847, 0.965788, 0, 0, 0, 0, 1, 0, 721.894, 156.076, 0, 1);"/><path d="M 0 0 Q -10.4 18.720000000000002  0 41.6 Q 10.4 18.720000000000002 0 0 Z" class="petal" style="fill: rgb(66, 150, 248); stroke: none; transform: matrix(0.99657, 0.08274, -0.08274, 0.99657, 717.409, 130.27);"/><path d="M 0 0 Q -10.4 18.720000000000002  0 41.6 Q 10.4 18.720000000000002 0 0 Z" class="petal" style="fill: rgb(66, 150, 248); stroke: none; transform: matrix(0.49099, -0.87116, 0.87116, 0.49099, 717.409, 130.27);"/><path d="M 0 0 Q -10.4 18.720000000000002  0 41.6 Q 10.4 18.720000000000002 0 0 Z" class="petal" style="fill: rgb(66, 150, 248); stroke: none; transform: matrix(-0.06423, -0.99793, 0.99793, -0.06423, 717.409, 130.27);"/><path d="M 0 0 Q -10.4 18.720000000000002  0 41.6 Q 10.4 18.720000000000002 0 0 Z" class="petal" style="fill: rgb(66, 150, 248); stroke: none; transform: matrix(-0.77045, -0.63749, 0.63749, -0.77045, 717.409, 130.27);"/><path d="M 0 0 Q -10.4 18.720000000000002  0 41.6 Q 10.4 18.720000000000002 0 0 Z" class="petal" style="fill: rgb(66, 150, 248); stroke: none; transform: matrix(-0.99384, 0.11075, -0.11075, -0.99384, 717.409, 130.27);"/><path d="M 0 0 Q -10.4 18.720000000000002  0 41.6 Q 10.4 18.720000000000002 0 0 Z" class="petal" style="fill: rgb(66, 150, 248); stroke: none; transform: matrix(-0.81991, 0.57249, -0.57249, -0.81991, 717.409, 130.27);"/><path d="M 0 0 Q -10.4 18.720000000000002  0 41.6 Q 10.4 18.720000000000002 0 0 Z" class="petal" style="fill: rgb(66, 150, 248); stroke: none; transform: matrix(0.26831, 0.96333, -0.96333, 0.26831, 717.409, 130.27);"/><path d="M 0 0 Q -10.4 18.720000000000002  0 41.6 Q 10.4 18.720000000000002 0 0 Z" class="petal" style="fill: rgb(66, 150, 248); stroke: none; transform: matrix(0.651, 0.75907, -0.75907, 0.651, 717.409, 130.27);"/><path d="M 0 0 Q -5.2 9.360000000000001  0 20.8 Q 5.2 9.360000000000001 0 0 Z" class="petal" style="fill: rgb(236, 174, 58); stroke: none; transform: matrix3d(0.686325, -0.704486, 0, 0, 0.704486, 0.686325, 0, 0, 0, 0, 1, 0, 717.409, 130.27, 0, 1);"/><path d="M 0 0 Q -5.2 9.360000000000001  0 20.8 Q 5.2 9.360000000000001 0 0 Z" class="petal" style="fill: rgb(236, 174, 58); stroke: none; transform: matrix3d(-0.291374, -0.939359, 0, 0, 0.939359, -0.291374, 0, 0, 0, 0, 1, 0, 717.409, 130.27, 0, 1);"/><path d="M 0 0 Q -5.2 9.360000000000001  0 20.8 Q 5.2 9.360000000000001 0 0 Z" class="petal" style="fill: rgb(236, 174, 58); stroke: none; transform: matrix3d(-0.908973, 0.426959, 0, 0, -0.426959, -0.908973, 0, 0, 0, 0, 1, 0, 717.409, 130.27, 0, 1);"/><path d="M 0 0 Q -5.2 9.360000000000001  0 20.8 Q 5.2 9.360000000000001 0 0 Z" class="petal" style="fill: rgb(236, 174, 58); stroke: none; transform: matrix3d(-0.763481, 0.62013, 0, 0, -0.62013, -0.763481, 0, 0, 0, 0, 1, 0, 717.409, 130.27, 0, 1);"/><path d="M 0 0 Q -5.2 9.360000000000001  0 20.8 Q 5.2 9.360000000000001 0 0 Z" class="petal" style="fill: rgb(236, 174, 58); stroke: none; transform: matrix3d(0.423819, 0.887603, 0, 0, -0.887603, 0.423819, 0, 0, 0, 0, 1, 0, 717.409, 130.27, 0, 1);"/><path d="M 0 0 Q -5.2 9.360000000000001  0 20.8 Q 5.2 9.360000000000001 0 0 Z" class="petal" style="fill: rgb(236, 174, 58); stroke: none; transform: matrix3d(0.92441, -0.367527, 0, 0, 0.367527, 0.92441, 0, 0, 0, 0, 1, 0, 717.409, 130.27, 0, 1);"/><path d="M 0 0 Q -12.8 23.040000000000003  0 51.2 Q 12.8 23.040000000000003 0 0 Z" class="petal" style="fill: rgb(66, 150, 248); stroke: none; transform: matrix(0.96065, 0.27775, -0.27775, 0.96065, 62.902, 107.844);"/><path d="M 0 0 Q -12.8 23.040000000000003  0 51.2 Q 12.8 23.040000000000003 0 0 Z" class="petal" style="fill: rgb(66, 150, 248); stroke: none; transform: matrix(0.87555, -0.48311, 0.48311, 0.87555, 62.902, 107.844);"/><path d="M 0 0 Q -12.8 23.040000000000003  0 51.2 Q 12.8 23.040000000000003 0 0 Z" class="petal" style="fill: rgb(66, 150, 248); stroke: none; transform: matrix(0.50041, -0.86578, 0.86578, 0.50041, 62.902, 107.844);"/><path d="M 0 0 Q -12.8 23.040000000000003  0 51.2 Q 12.8 23.040000000000003 0 0 Z" class="petal" style="fill: rgb(66, 150, 248); stroke: none; transform: matrix(-0.52925, -0.84846, 0.84846, -0.52925, 62.902, 107.844);"/><path d="M 0 0 Q -12.8 23.040000000000003  0 51.2 Q 12.8 23.040000000000003 0 0 Z" class="petal" style="fill: rgb(66, 150, 248); stroke: none; transform: matrix(-0.99998, -0.00478, 0.00478, -0.99998, 62.902, 107.844);"/><path d="M 0 0 Q -12.8 23.040000000000003  0 51.2 Q 12.8 23.040000000000003 0 0 Z" class="petal" style="fill: rgb(66, 150, 248); stroke: none; transform: matrix(-0.94542, 0.32582, -0.32582, -0.94542, 62.902, 107.844);"/><path d="M 0 0 Q -12.8 23.040000000000003  0 51.2 Q 12.8 23.040000000000003 0 0 Z" class="petal" style="fill: rgb(66, 150, 248); stroke: none; transform: matrix(-0.27518, 0.96139, -0.96139, -0.27518, 62.902, 107.844);"/><path d="M 0 0 Q -12.8 23.040000000000003  0 51.2 Q 12.8 23.040000000000003 0 0 Z" class="petal" style="fill: rgb(66, 150, 248); stroke: none; transform: matrix(0.40826, 0.91286, -0.91286, 0.40826, 62.902, 107.844);"/><path d="M 0 0 Q -6.4 11.520000000000001  0 25.6 Q 6.4 11.520000000000001 0 0 Z" class="petal" style="fill: rgb(236, 174, 58); stroke: none; transform: matrix3d(0.89951, -0.402695, 0, 0, 0.402695, 0.89951, 0, 0, 0, 0, 1, 0, 62.902, 107.844, 0, 1);"/><path d="M 0 0 Q -6.4 11.520000000000001  0 25.6 Q 6.4 11.520000000000001 0 0 Z" class="petal" style="fill: rgb(236, 174, 58); stroke: none; transform: matrix3d(-0.483971, -0.861504, 0, 0, 0.861504, -0.483971, 0, 0, 0, 0, 1, 0, 62.902, 107.844, 0, 1);"/><path d="M 0 0 Q -6.4 11.520000000000001  0 25.6 Q 6.4 11.520000000000001 0 0 Z" class="petal" style="fill: rgb(236, 174, 58); stroke: none; transform: matrix3d(-0.925284, 0.394842, 0, 0, -0.394842, -0.925284, 0, 0, 0, 0, 1, 0, 62.902, 107.844, 0, 1);"/><path d="M 0 0 Q -6.4 11.520000000000001  0 25.6 Q 6.4 11.520000000000001 0 0 Z" class="petal" style="fill: rgb(236, 174, 58); stroke: none; transform: matrix3d(-0.866602, 0.470004, 0, 0, -0.470004, -0.866602, 0, 0, 0, 0, 1, 0, 62.902, 107.844, 0, 1);"/><path d="M 0 0 Q -6.4 11.520000000000001  0 25.6 Q 6.4 11.520000000000001 0 0 Z" class="petal" style="fill: rgb(236, 174, 58); stroke: none; transform: matrix3d(0.379854, 0.909381, 0, 0, -0.909381, 0.379854, 0, 0, 0, 0, 1, 0, 62.902, 107.844, 0, 1);"/><path d="M 0 0 Q -6.4 11.520000000000001  0 25.6 Q 6.4 11.520000000000001 0 0 Z" class="petal" style="fill: rgb(236, 174, 58); stroke: none; transform: matrix3d(0.774964, 0.609484, 0, 0, -0.609484, 0.774964, 0, 0, 0, 0, 1, 0, 62.902, 107.844, 0, 1);"/><path d="M 0 0 Q -12.8 23.040000000000003  0 51.2 Q 12.8 23.040000000000003 0 0 Z" class="petal" style="fill: rgb(66, 150, 248); stroke: none; transform: matrix(0.99917, 0.04062, -0.04062, 0.99917, 41.7575, 108.623);"/><path d="M 0 0 Q -12.8 23.040000000000003  0 51.2 Q 12.8 23.040000000000003 0 0 Z" class="petal" style="fill: rgb(66, 150, 248); stroke: none; transform: matrix(0.35197, -0.93601, 0.93601, 0.35197, 41.7575, 108.623);"/><path d="M 0 0 Q -12.8 23.040000000000003  0 51.2 Q 12.8 23.040000000000003 0 0 Z" class="petal" style="fill: rgb(66, 150, 248); stroke: none; transform: matrix(-0.21994, -0.97551, 0.97551, -0.21994, 41.7575, 108.623);"/><path d="M 0 0 Q -12.8 23.040000000000003  0 51.2 Q 12.8 23.040000000000003 0 0 Z" class="petal" style="fill: rgb(66, 150, 248); stroke: none; transform: matrix(-0.69545, -0.71857, 0.71857, -0.69545, 41.7575, 108.623);"/><path d="M 0 0 Q -12.8 23.040000000000003  0 51.2 Q 12.8 23.040000000000003 0 0 Z" class="petal" style="fill: rgb(66, 150, 248); stroke: none; transform: matrix(-0.99969, -0.02452, 0.02452, -0.99969, 41.7575, 108.623);"/><path d="M 0 0 Q -12.8 23.040000000000003  0 51.2 Q 12.8 23.040000000000003 0 0 Z" class="petal" style="fill: rgb(66, 150, 248); stroke: none; transform: matrix(-0.47563, 0.87964, -0.87964, -0.47563, 41.7575, 108.623);"/><path d="M 0 0 Q -12.8 23.040000000000003  0 51.2 Q 12.8 23.040000000000003 0 0 Z" class="petal" style="fill: rgb(66, 150, 248); stroke: none; transform: matrix(0.02839, 0.99959, -0.99959, 0.02839, 41.7575, 108.623);"/><path d="M 0 0 Q -12.8 23.040000000000003  0 51.2 Q 12.8 23.040000000000003 0 0 Z" class="petal" style="fill: rgb(66, 150, 248); stroke: none; transform: matrix(0.90228, 0.43113, -0.43113, 0.90228, 41.7575, 108.623);"/><path d="M 0 0 Q -6.4 11.520000000000001  0 25.6 Q 6.4 11.520000000000001 0 0 Z" class="petal" style="fill: rgb(236, 174, 58); stroke: none; transform: matrix3d(1.00642, -0.15319, 0, 0, 0.15319, 1.00642, 0, 0, 0, 0, 1, 0, 41.7575, 108.623, 0, 1);"/><path d="M 0 0 Q -6.4 11.520000000000001  0 25.6 Q 6.4 11.520000000000001 0 0 Z" class="petal" style="fill: rgb(236, 174, 58); stroke: none; transform: matrix3d(0.510837, -0.871094, 0, 0, 0.871094, 0.510837, 0, 0, 0, 0, 1, 0, 41.7575, 108.623, 0, 1);"/><path d="M 0 0 Q -6.4 11.520000000000001  0 25.6 Q 6.4 11.520000000000001 0 0 Z" class="petal" style="fill: rgb(236, 174, 58); stroke: none; transform: matrix3d(-0.996769, -0.0552555, 0, 0, 0.0552555, -0.996769, 0, 0, 0, 0, 1, 0, 41.7575, 108.623, 0, 1);"/><path d="M 0 0 Q -6.4 11.520000000000001  0 25.6 Q 6.4 11.520000000000001 0 0 Z" class="petal" style="fill: rgb(236, 174, 58); stroke: none; transform: matrix3d(-0.559182, 0.860456, 0, 0, -0.860456, -0.559182, 0, 0, 0, 0, 1, 0, 41.7575, 108.623, 0, 1);"/><path d="M 0 0 Q -6.4 11.520000000000001  0 25.6 Q 6.4 11.520000000000001 0 0 Z" class="petal" style="fill: rgb(236, 174, 58); stroke: none; transform: matrix3d(0.21472, 1.01783, 0, 0, -1.01783, 0.21472, 0, 0, 0, 0, 1, 0, 41.7575, 108.623, 0, 1);"/><path d="M 0 0 Q -6.4 11.520000000000001  0 25.6 Q 6.4 11.520000000000001 0 0 Z" class="petal" style="fill: rgb(236, 174, 58); stroke: none; transform: matrix3d(0.475756, 0.871903, 0, 0, -0.871903, 0.475756, 0, 0, 0, 0, 1, 0, 41.7575, 108.623, 0, 1);"/></g>
	</svg>